<svg xmlns="http://www.w3.org/2000/svg" width="171.077" height="260.041" viewBox="0 0 171.077 260.041"><g transform="translate(-155.693 -467.058)"><g transform="translate(3580.219 1176.339)"><g transform="translate(-3416.596 -707.468)"><path d="M443.209,20.184c-.1.008-.12.083.033.25.35.382.507.609.412.99,0,0,.258.887.512.823s.188,0,.061-.378-.157-.8.161-.8a2.632,2.632,0,0,0,1.4-.289,1.679,1.679,0,0,1,1.274-.351c.382.1.73.446.634.128s-.575-.346-1.274-.25-.984.381-1.747.317-.7.091-.951-.195A.76.76,0,0,0,443.209,20.184Z" transform="translate(-369.634 -20.183)" fill="#b4b4b5"/><path d="M475.786,27.081c-.118.021-.238.17-.167.456,0,0,.35,0,.35-.289A.154.154,0,0,0,475.786,27.081Z" transform="translate(-396.32 -25.851)" fill="#b4b4b5"/><path d="M479.628,30.059a.461.461,0,0,0-.184.022c-.159.064-.986.509-.35.351a.743.743,0,0,1,.951.189c.35.509,1.306,1.842,1.5,2.064a14.809,14.809,0,0,0,1.335,1.18c.191.127,1.587.95,1.4.7s-1.78-1.334-2.1-1.652-.924-.794-1.052-1.207a5.886,5.886,0,0,0-.762-1.335,1.086,1.086,0,0,0-.734-.306Z" transform="translate(-398.998 -28.3)" fill="#b4b4b5"/><path d="M166.138,39.585a.675.675,0,0,0-.434.167c-.286.286-1.079.1-1.174.512s-.32.347-.384.729-.476.665-1.207,1.174-1.337-.411-1.814-.284-.443.192-.506-.095-.411.16-.506.573-.323.126-1.213.189-.6-.13-.951-.606-.478.416-.478.606-.061.475-.061.729a2.522,2.522,0,0,1-.957,1.213,2.918,2.918,0,0,0-1.207.918c-.1.286-1.05.732-1.463,1.241a.877.877,0,0,0-.028,1.207c.223.286-.195.607-.417.957s-.315.509-.156.8-.35.982-.89,1.141a3.685,3.685,0,0,0-1.558,1.052,3.536,3.536,0,0,1-1.625.823c-.54.223-.664-1.017-.918-1.335s-.828.572-1.369.668a.541.541,0,0,0-.445.64s-.033.033-.256.351-.537.094-1.269-.478-1.875,1.558-1.875,1.558-2.163,1.207-2.7,1.43-.766.126-1.18.634-.761.35-1.524.445.573.444.8.985-.254,1.53-.445,1.975.157.571.189,1.079-.092.667-.378.762-.322,1.528-.417,1.719a11.443,11.443,0,0,0,.033,2.064c.032.954-.765.13-1.146-.284s-.188.668-.156.89a2.376,2.376,0,0,1-.412,1.141c-.191.223-.386.321-.1.512s0,.19-.378.317-1.111.924-1.079,1.146-.1.317-.417.317-.159-.192-.445-.478a1.663,1.663,0,0,1-.284-1.335,3.619,3.619,0,0,0-.762-1.78c-.318-.509-.669.257-.7.829a11.676,11.676,0,0,1,.033,1.491,1.184,1.184,0,0,0,.351,1.052c.191.286.409.414.122.8s.067.157.067,1.079a10.476,10.476,0,0,0,.189,1.842,9.818,9.818,0,0,0,.189,1.307,2.41,2.41,0,0,1-.095,1.3c-.159.54-.091.447-.028.7s-.223.443-.445,1.174a2.848,2.848,0,0,1-1.307,1.369c-.191.1-.445.189-.445.189a1.567,1.567,0,0,0,.067.351c.064.223-.288.824-.924,1.4s.634.321.857.289.763.444.89.857-1.141,1.148-1.586,1.4-.478-1.148-.8-1.18-.29,1.463-.64,1.908-.347-.094-.284.7a3.1,3.1,0,0,1-.384,1.652c-.191.509.1.255.128,1.241s0,.222.289.54.222.316.54.634,1.366-.092,1.652-.156a1.069,1.069,0,0,1,1.113.857,6.084,6.084,0,0,1,.095,1.842c-.127.572.223.762.223.762a2.586,2.586,0,0,0,.223.256c.127.127.032.353-.223.734s-.729,1.016-.951,1.079-.1.252.028.729.352.67-.284,1.274-.888.506-1.174.729-.286.826-.89.762-.735.48-1.53.734.254-.6.317-.857a3.461,3.461,0,0,1,.417-.99c.286-.509.192-.44.351-1.235s-1.242-1.911-1.369-2.292-.13-.668-.512-.668-.537-.411-.823-.729-.8-.476-1.052-.095-1.018,1.746-1.463,2.509a3.028,3.028,0,0,1-1.586,1.174c-.35.159-.254.989-.095,1.18s-.164.157-.323,1.4.29.606.417,1.146a2.479,2.479,0,0,0,.89,1.4c.286.1.476.319.317.351s0,.385-.289.957-.347.537-1.174,1.141-1.465,2.225-1.719,2.448-.127,1.021,0,1.53.478,1.082.256,1.241.035.347.067.729.062.572.189,1.335-.285.6-.317,1.174.411.924.506,1.146.539,2.161.634,2.765.447.7.829.924.351.891.8,1.241.984-.064,1.3.445.32.664.7.823a.885.885,0,0,0,1.079-.156,1.436,1.436,0,0,1,1.018-.384c.159.032.509.543.89.606s.316.029-.384-.606.572-.06.89.195a3.153,3.153,0,0,0,1.686.156c.223-.064.544-.732.64-1.018s.347-.064.284.095a6.267,6.267,0,0,0-.317.924,5.078,5.078,0,0,1-.89,1.335c-.318.35.127.638.445,1.052s.158.795-.573,1.558a1.99,1.99,0,0,1-2.287.445c-.509-.286.281-.381-.1-.54a1.03,1.03,0,0,1-.668-.64c-.1-.286-.474-.346-.823-.473a.882.882,0,0,1-.7-.7c-.127-.477-.287-.224-.351.189s-.253.67-1.079,1.5.284.572.061.668.161.284.161.284.224.032.033.668-.54.316-.317.634,0,.29-.351.417a.805.805,0,0,0-.54.573.867.867,0,0,0,.189.823,1.192,1.192,0,0,1-.128,1.241,1.268,1.268,0,0,0-.445,1.079c.032.477-.318.635-.223.985s-.193.543-.384.829-.062.506.033.729,1.113.384,1.113.384a4.479,4.479,0,0,0,.033.857c.064.382-.285.285-.54.317s-.667.608-.762.862.125.378.284.473.414.478.573.573-.126-.378-.095-.6.191-.384-.223-.384.25-.447.473-.478.416.227.606.545.318.823.445,1.046-.252.857-.506,1.079-.194.7-.734.862-.954.092-.89.6.382.542.573,1.146a.915.915,0,0,0,.2.406.314.314,0,0,0-.139.006c-.286.064-.444-.54-.634-.54s-.22-.126-.061.351.316.444.506.634.16.192-.317.478-.416-.348-.384-.634-.412-.54-.857-.317-.411.064-.951-.223-.732,1.272-.8,1.558-.413,0-.668-.161-.192-.413-.351-.668-.061-.285.161-.54a1.554,1.554,0,0,0,.412-.89,1.657,1.657,0,0,0-.412-1.3c-.318-.318.317-.447.762-.606s.317-.285.095-.54-.095-.285.128-.317.6.25.857.25.126-.254.189.223-.033.224.317.256.481-.444.64-.634-.572-.921-.89-1.43.157-.608.284-.862-.379-.378-.951-.473.094.378.189.6.159.478-.223.924-.32.478-.829.256-.476-.32-.54-.7-.316-.411-.506-.506a.453.453,0,0,1-.289-.512c.032-.286-.062-.221-.189-.412s-.156-.161-.156-.7-.223-.573-.445-.573-.191.032,0-.668a17.761,17.761,0,0,1,.412-1.875c.191-.382-.13-.349-.161-.985s0-.6-.223-.573-.222-.192-.54-.128-.669-.854-.478-1.141-.028-.45-.028-.99.7-.759,1.363-1.586a2.4,2.4,0,0,0,.445-1.875c.032-.35.291-.54.323-.89s.124-.227.378-.768.194-.631-.156-1.013.159-.478.223-.8-.352-.032-.606,0,0,.282-.189.473-.862-.823-.957-1.363-.187-.54-.473-.445-.575.028-.606.25-.029.036-.729-.028-.543-.955-.606-1.146.351-.953-.095-.985,0,.253-.512.412-.062.192.033.478.226.35.067.668.095.288.317.7-.765.347-1.052.378.444.477.54.89,1.083.636,1.274.89a3.4,3.4,0,0,0,1.4.7c.159-.032.352-.035.161.156s-.129.195-.033.417.351.223.033.351-.829-.544-1.052-.417.255.416.351.606a3.768,3.768,0,0,1,.54,1.079c.064.413-.1.223-.223-.095a4.347,4.347,0,0,0-1.269-1.335c-.572-.413-.354-.444-.417-.857s-.695-.542-1.235-.7.6.952.762,1.3.793.416,1.079.734.161.35.256.668.255.318.351.668-.321.222-.512-.351-.722-.548-.812-.862-.583-.627-1.257-1.346-.9-.808-1.486-.673-.72.581-1.079.94-.266.135-.356-.045a.486.486,0,0,0-.673-.089,1.219,1.219,0,0,1-.9.406c-.45,0-.359.361-.584.406s-.54,1.3-.54,1.524.091.765,1.035,1.035,1.71-.851,2.114-.9.94.537.985.851.272.944.317,1.124a5.531,5.531,0,0,0,.267.718,11.413,11.413,0,0,1,.451,1.307c.09.36.226,1.4-.089,1.486s0,.448,0,1.3a1.912,1.912,0,0,1-1.124,1.664c-.45.18-.226.406-.451.946s-.044.626-.134.851-.447.18-.267.584.537.317.807.362.359.631.584.99.583.4.718.584a1.176,1.176,0,0,1-.089,1.257c-.36.315-.271.271.089.451s.632.9.857,1.346.043.584-.362.629-.406.359-.451.629.632.811.857.9.449.406.629.406.178.807.178.807a1.639,1.639,0,0,0,.05.273c.045.18-1.349.855-1.664,1.035s-.765-.228-1.079-.273-.812-2.022-.857-2.337.223-.767.178-1.4-.853-1.078-1.213-1.257-.583-2.159-.673-2.7-.359-.492-.584-.762-.853-1.217-1.213-1.352a2.709,2.709,0,0,0-2.07.9c-.629.674-.992.493-1.4,1.257s-.94.994-1.48,1.758.043.4.223.4a2.164,2.164,0,0,1,.857,3.1c-.18.315.176.854-.184,1.124s-.179,1.617-.673,1.8-.226,1.576-.406,2.025a2.667,2.667,0,0,0-.223,1.257,2.808,2.808,0,0,1-.451,1.441c-.27.45-.041.584.184,1.124s.942.313.762,1.257-.225.809-.54,1.124.227.09.362.584.539.178.629.718a2.209,2.209,0,0,1-.228,1.352c-.225.674-.18.584.045,1.168s-.089.99-.045,1.619.4.944.045,1.664.36,1.26.54,1.53a14.749,14.749,0,0,1,.184,2.426c.09.809.133,2.2.178,3.194a3.219,3.219,0,0,1-.267,2.2c-.495,1.079-.181,2.7-.406,3.01s.314,1.574.089,2.743-.09.718,0,1.213.4,1.081.223,1.486a3.965,3.965,0,0,0-.089,2.337,9.84,9.84,0,0,1,.089,2.743c-.045.54.405,1.216.5,2.565a6.275,6.275,0,0,0,.5,2.337c.225.585.089.627.134,1.3a12.01,12.01,0,0,1,0,2.2c-.09.584.047,1.529-.223,1.619s-.451.494-.406,1.124a6.956,6.956,0,0,0,.139,1.619c.18.719,2.245,1.978,2.515,2.248s1.126,1.983,1.486,2.342a2.725,2.725,0,0,1,.54,1.664c.045.629.27.582.5.762a14.13,14.13,0,0,1,.54,3.238c.135,1.124-.454,1.168-1.263,2.292s-.31,1.213-.445,1.708a11.13,11.13,0,0,0-.362,3.283,4.258,4.258,0,0,0,.851,2.654,12.614,12.614,0,0,0,2.387,2.381,14.584,14.584,0,0,1,.584,2.426c.225.989,1.166.859,1.435,1.174a7.436,7.436,0,0,0,1.079,1.213c.585.495.9.85.768,1.48s.041.273.356.768,1.083,1.71.723,2.07.04.809.445,1.708.455.628.05,1.257a2.136,2.136,0,0,0-.406.946c-.135.4.222,1.3.312,1.8a9.568,9.568,0,0,1-.9,3.1c-.225.27.313.81.178,1.079s.362.409.362,1.218a.707.707,0,0,0,.673.807,12.815,12.815,0,0,1,.807,1.257,4.161,4.161,0,0,1-.49,2.292,1.129,1.129,0,0,0-.273,1.035,11.771,11.771,0,0,1-.362,1.708,2.114,2.114,0,0,1-1.346,1.53c-.629.27-.719.587-1.124.9a2.836,2.836,0,0,1-1.664.673c-.015,0-.035,0-.05.006l13.253,30.929,9.347,5.786,13.648,4.746s17.656-17.207,18.249-17.948c.363-.454,2.278-2.346,3.756-3.794-.285.177-.684.121-.84.339s-.983.159-1.4,0-.446-.1-.573-.033a.911.911,0,0,1-.857.095c-.509-.159-.513-.287-.768-.573s-.126.066-.412.161-.856-.6-1.174-.634-.385-.254-.195-.445.161-.382.256-.573-.256-.033-.7-.128-.186-.16-.122-.351.091-.351.25-.256.351-.284.478-.506.285-.383.095-.7.221-.347.412-.506a3.048,3.048,0,0,0,.606-.862c.064-.191.127-.377.445-.345s.1.537-.095.6-.192.607-.256.957.034.442.384.378a3.567,3.567,0,0,0,1.241-1.113c.064-.159.283-.255.823-.351s1.243.448,1.4.512.157.06.284-.417.351-.444.573-.54a3.074,3.074,0,0,1,1.146-.25c.477,0,.251.156.378.378a4.381,4.381,0,0,1,.161,1.274c0,.223.475-.319.729-.573s.35-.416.223-.606.129-.571.033-.857.252-.286.061-.668.128-.506.128-.506a5.293,5.293,0,0,0,.606.634c.127.064-.1-.861-.289-1.052s.1-.475.223-.634.444.1.54.445a8.756,8.756,0,0,1,.1,1.747c-.032.159-.446,1.082-.573,1.463s-.161,1.3.061,1.463.19-.762.317-.985a3.592,3.592,0,0,0,.573-.89c.127-.413.476-.225.54.284a3.73,3.73,0,0,0,.195,1.113c.191.572.381.317.54.54s.284-.25.284-.25a2.123,2.123,0,0,1,.256-.734c.191-.286.443.13.506.384s.158.35.317,0,.226.188.289.378.315.13.6.161-.062-.221-.189-.634.606-.223.924-.128.476.349.762.54.225-.064.161-.573.377-.922.568-1.335.511-.064.606-.573.158-.19.317.128,0,.8-.223.8-.161.542-.033.7.064.315,0,.823-.35,2.419-.445,3.182.447.126.478-.256.128-.478.351-.573.192-.6.351-.668.129-.574.033-.7,0-.062,0-.189a3.418,3.418,0,0,1,.412-1.174c.254-.413.443-.064.506.095a2.976,2.976,0,0,1-.061,1.146c-.1.445-.226,1.113-.289,1.335a3.309,3.309,0,0,1-.284,1.141,19.983,19.983,0,0,1-1.113,2c-.191.223.13.35-.284.445s-.223-.319-.445-.573-1.114.318-1.463.445-.126.128.128.573a4.136,4.136,0,0,1,.317,1.652c.032.509.444.544.762.734s0,1.367-.033,2-.156.89.289,1.113.889-.7.985-.89.094-.257.634-.606.413-.382.54-.573.892-.44,1.146-.79.571-.159,1.079-.445.447-.354.478-.99.033-.76.256-.6.031-.224.095-.479a3.129,3.129,0,0,0-.033-1.43c-.159-.35.157-.447-.033-.606s.033-.666.351-1.079.126-.792.189-1.268.194-.386.289-.545a.894.894,0,0,0,.189-.54c.064-.413.033-.347.256-.506s.7.063,1.079.095.6-.157,1.113-.189a4.362,4.362,0,0,0,1.5-.478c.286-.159,1.3-1.147,1.335-1.5s.347-.219.506-.156.382.124.445-.289.444-.316.54-.506.1-.447.289-.829.16-.664.351-.823a14.533,14.533,0,0,0,.506-2.609c.127-.668.223-.507.573-1.3a7.139,7.139,0,0,0,.54-2.164c.286-1.462.861-1.428,1.052-2.064a5.025,5.025,0,0,1,.985-1.43,32.192,32.192,0,0,0,1.714-3.21,5.424,5.424,0,0,0,.445-1.847c.064-.922-.125-.727-.061-1.363a2.11,2.11,0,0,1,.189-.924,7.776,7.776,0,0,1,.957-1.942c.413-.413.122-1.555.122-2.159a8.307,8.307,0,0,1,1.274-2.671,7.456,7.456,0,0,0,1.018-2.543,2.5,2.5,0,0,1,.668-1.5,7.375,7.375,0,0,1,2.259-1.686c.636-.254.7-1.431,1.046-1.78a9.141,9.141,0,0,0,.829-1.174A4.684,4.684,0,0,1,207,224.946a3.559,3.559,0,0,0,1.274-1.43,8.655,8.655,0,0,0,1.079-2.1c.223-.858.955-1.594,1.018-1.975a1.606,1.606,0,0,1,.7-.918,9.781,9.781,0,0,0,1.269-2.326c.286-.668-.541-.221-1.018-.189s-.508-.7-.54-1.079a5.574,5.574,0,0,1,1.3-2.036c.286-.223,1.146-.223,1.591-.35s1.02-.126,1.052-.412a5.53,5.53,0,0,1,.6-1.274c.35-.7.765-.7.924-1.269s.351-1.906.573-2.637-.891-1.241-1.018-1.463a3.732,3.732,0,0,0-.412-.957,2.668,2.668,0,0,1-.256-1.686c.1-.318.286-.477-.223-.89s-.507-1.555-.412-2.064a10.57,10.57,0,0,0,.128-1.591,3.714,3.714,0,0,1,.823-1.463c.223-.191.288,0,.256.256a2.615,2.615,0,0,1-.512,1.335c-.35.35-.029.51.161.479s.637-1.114.7-1.591a3.606,3.606,0,0,0-.317-1.524,4.423,4.423,0,0,1-.128-1.3c0-.318.028-.575.028-.957a10.775,10.775,0,0,0,.033-2.481,2.933,2.933,0,0,1-.033-1.652c.127-.35.032-.795.223-1.113s-.029-.478-.284-.8a4.771,4.771,0,0,1-.506-.951,7.7,7.7,0,0,1-.478-1.4,11.542,11.542,0,0,1,.924-2.737c.127-.223.186-.319.345.095s0,.765-.223,1.591.161.094.384-.256a1.8,1.8,0,0,0,.095-1.046,5.512,5.512,0,0,0-.317-.89v-.957a9.017,9.017,0,0,0-.189-2.32c-.254-1.081-1.307-1.493-1.847-1.875s-.8-2.32-.8-2.32a4.37,4.37,0,0,0-.156-1.18c-.159-.445.666-.888.857-.951s.191-1.144.223-1.43.287-.479.351-.606-.093-.665-.061-1.174-.35-.194-.445.156-.6.287-1.018.128-.415-.441-.256-.7-.571-.448-1.207-.512a.912.912,0,0,1-.857-.89c-.032-.35-1.052-.824-1.274-.951s-.732.187-1.241.7-.411.445-.951.445-.574-.345-.7-1.013.542-.513.924-.417-.1-1.172-.289-.7-.923.6-1.241.823-.477.223-.668.445-1.491-.033-2.159-.256-.639-1.3-.512-2.159.323-1.052,1.213-1.274.824-.286,1.174-.668.538-1.046-.161-1.269-1.269.414-1.619.573-.319.347-.573-.067a1.927,1.927,0,0,1-.223-1.207c0-.509.255-1.083.351-1.814s.188-.92.061-1.3a8.576,8.576,0,0,1-.156-2.509c.064-1.113.38.032.412.668s.191-.132.223-.545.224-.761-.189-1.174-.224-.606-.033-1.052.479-.379.161-.729.064-.824.128-1.174a2.239,2.239,0,0,0-.351-1.463,3.459,3.459,0,0,1-.384-1.369,2.373,2.373,0,0,1,.384-1.335c.127-.223.028-.318-.195-.445s.037-.637.1-.924.092-.57-.067-.729a1.917,1.917,0,0,1-.412-.957,1.8,1.8,0,0,0-.734-1.079,3.168,3.168,0,0,1-.54-1.491c-.064-.254-.347-.258-.506-.512a3.459,3.459,0,0,0-1.5-.729.768.768,0,0,1-.668-.829c-.032-.445.286-.634.223-1.079s-.731-1.08-1.335-1.43-.7-1.021-.7-1.753a9.2,9.2,0,0,1,.568-2.476,7.186,7.186,0,0,0,.512-1.4c.1-.509.285-.029.317.289s-.157.571-.061.762.7-1.493.445-1.747-.036-.449.25-1.085a11.128,11.128,0,0,1,1.052-1.875c.445-.636-.667-1.111-1.207-1.3s-.255-.988-.128-1.5.442-.573.156-.8-.223-.6,0-1.113.767-.886,1.085-1.363,1.4-.257,1.875-.384.32-.541.478-1.018-.1-.316-.223.161-.449.319-.417-.095.126-.827.317-.89.066-.351.161-.478.828-.861,1.146-.829.22-.027.506.1.351.409-.095.345-.351.351-.128.478-.063.35-.317.445.606.225.606.384,1.331-.382,2.125-.8.54-1.559.668-1.686a1.1,1.1,0,0,0,.323-.924c-.064-.477.25-2.225.25-2.543s.126-.573-.128-.573-.442-.254-.6-.095-.382.13-.445-.061-.73.159-.985.223.189.478-.033.573.126.443.189.951-.475,0-.729-.256a1.186,1.186,0,0,1-.384-.6c-.064-.223.063-.636-.128-.668s-.095-.321-.095-.512.034-.728.161-.823a1.579,1.579,0,0,0,.351-.734c0-.159.125-.25.506-.25s.353-.606.289-1.052-.574-.192-.924-.033-.159.764-.223,1.241-.287.191-.35-.223-.065,0-.256.289-.444.218-.317-.1a10.08,10.08,0,0,0,.351-1.141c.127-.477-.095-.449-.54-.417s-.92-.221-1.524-.189-.7-.477-.924-.89,1.459-.538,1.936-.506a1.126,1.126,0,0,0,.957-.54,9,9,0,0,1,1.97-.668c.191-.064.351.091.573.345s.951-.25,1.619-.25.194.219-.378.473.1.194.445.512a2.681,2.681,0,0,1,.762.951c.064.254.033.354-.189.64s-.608.25-.64.028-.223.128-.223.128a3.428,3.428,0,0,0-.634.317c-.286.191-.381.223-.095.445s1.559-.255,1.814-.351.633.064.6.351.128.384.351.384a1.466,1.466,0,0,0,.8-.067c.413-.159.54-.285.762-1.079s-.095-.6-.095-1.463.157-.508.284-.54a.914.914,0,0,0,.573-.8.935.935,0,0,1,.317-.823,3.981,3.981,0,0,0,.384-1.146.953.953,0,0,0-.189-.951,1.988,1.988,0,0,1-.512-1.146,1.386,1.386,0,0,0-1.018-1.113c-.6-.1-.477.316-.668.951s.192.51.128,1.146.54.763.762.89-.123.506-.25.284-.322.037-.195.323-.029.441-.378.25a1.506,1.506,0,0,1-.7-.6,9.283,9.283,0,0,0-1.335-1.5,12.126,12.126,0,0,0-2.259-1.558,1.224,1.224,0,0,1-.7-.89c-.1-.445-.8-.761-1.146-.857s-.381-.731-.095-1.335.316.094.634.412.83-.192.957-.351.254.064.317.445.445.13.445.289.219.064.473.445a.981.981,0,0,1,.128.8c0,.191.223.475.351.284s.223.065.668.256.316-.068.412-.64.13-.157.161-.729a2.808,2.808,0,0,0-.256-1.174,1.314,1.314,0,0,1,.317-.7c.254-.223,1.021-.825,1.085-1.079s-.51-.13-.924.378-.157.348-.506.412-.511.636-1.052.89.252-.377.284-.567.163-.32.417-.606.285-.157-.351-.284.156-.35.378-.445.035-.1.289-.384a1.99,1.99,0,0,1,1.619-.161c.445.159,1.466-.6,1.625-1.491s.412-.761.762-.857.288-.32.256-.606a16.887,16.887,0,0,0-.351-1.747c-.064-.127-.826-1.339-.985-1.53a8.444,8.444,0,0,1-.862-3.271c.064-1.081.479-1.048.606-1.3s.126-.386.412-.323.064-.982-.223-1.491a18.555,18.555,0,0,1-.951-2.259,4.015,4.015,0,0,1,.095-2.159,2.915,2.915,0,0,0,.128-1.274,6.525,6.525,0,0,1,.25-1.174c.064-.477-1.078-1.209-1.269-1.463s-3.278-1.4-3.628-1.625-1.079-.316-.857-.189-.287.1-.573-.061-1.586-1.243-2.159-1.625.89.189.89.189,0,.034.128.161.636.224.89.478.54.157.223-.256a5.043,5.043,0,0,0-1.625-.985c-.254-.1-.92-.893-1.3-.957a14.515,14.515,0,0,0-1.847-.317c-.668-.032-2.7.48-3.461.512s-1.369.6-1.719.573-2.51-.034-2.86-.161-2.385-1.4-3.466-1.97-1.049-1.081-1.113-1.558a10.2,10.2,0,0,0-.189-2c-.191-.413.155-.954.25-1.113s-.349-1.369-.317-2.036-2.194-1.623-2.448-1.814a2.9,2.9,0,0,1-.8-1.269c-.127-.477-.729-.86-.729-1.146a2.437,2.437,0,0,0-.924-1.274,3.63,3.63,0,0,1-.823-2.125,6.4,6.4,0,0,1,.445-2.1c.223-.636.123-.445-.195-.89s-.033-1.428.095-2.509-.536-1.017-.918-1.113a11.2,11.2,0,0,1-2.576-2.064,1.917,1.917,0,0,0-1.335-.7c-.286-.064-.67-.543-1.052-.829a40.672,40.672,0,0,0-3.811-1.43c-1.017-.382-1.115-.6-1.5-.634s-1.016-.829-1.3-.829-.889-.665-1.207-.729-.29-.254-.195-.445c.06-.119-.19-.216-.456-.2Z" transform="translate(-87.233 -36.13)" fill="#b4b4b5"/><path d="M487.365,41.312a.172.172,0,0,0-.139.245s.444.38.317-.033C487.5,41.369,487.429,41.314,487.365,41.312Z" transform="translate(-405.862 -37.55)" fill="#b4b4b5"/><path d="M489.077,45.781c-.066,0-.125.078-.139.245,0,0,.317.476.317.095C489.255,45.906,489.162,45.781,489.077,45.781Z" transform="translate(-407.285 -41.224)" fill="#b4b4b5"/><path d="M720.479,294.813a7.088,7.088,0,0,1,.351,2.387,11.9,11.9,0,0,0-.067,1.97,8.5,8.5,0,0,0,.607,1.207A4.952,4.952,0,0,1,722,302.1a12.032,12.032,0,0,1-.256,1.652,1.343,1.343,0,0,0-.25.573,1.963,1.963,0,0,0-.067,1.113,2.39,2.39,0,0,1,.067,1.046,5.95,5.95,0,0,1-.734,1.4c-.254.286-1.4,1.05-.284.573,0,0,1.463-.541,1.463-.8a16.094,16.094,0,0,0-.195-1.908,1.013,1.013,0,0,1-.028-.924c.191-.54.441-1.876.473-2a1,1,0,0,1,.128-.54c.159-.223-.094-.952-.189-1.079a5.388,5.388,0,0,1-.857-1.43,19.165,19.165,0,0,1-.195-2.226c-.032-.413-.159-1.179-.223-1.5S720.479,294.813,720.479,294.813Z" transform="translate(-597.209 -245.918)" fill="#b4b4b5"/><path d="M714,363.962c-.03-.009-.091.027-.195.122a9.42,9.42,0,0,0-.857.951s-.446,1.179.095.384.413-.64.668-.862c.191-.167.38-.567.289-.6Z" transform="translate(-591.273 -302.755)" fill="#b4b4b5"/><path d="M676.888,566.561a.429.429,0,0,0-.451.423s.572.254.762-.128C677.3,566.665,677.1,566.553,676.888,566.561Z" transform="translate(-561.402 -469.284)" fill="#b4b4b5"/><path d="M708.643,655.281c-.116,0-.186.14-.172.523,0,0-.126.446.256.573s.474.024.384.428-.087.588.273.228.943-.18.718-.5a1.685,1.685,0,0,0-.629-.679C709.163,655.634,708.836,655.274,708.643,655.281Z" transform="translate(-587.716 -542.208)" fill="#b4b4b5"/><path d="M715.445,706.031a1.464,1.464,0,0,0-.935.4,1.68,1.68,0,0,0-.1.456c-.045.4.177.135.312-.045s.5,0,.723-.089.358-.224.718-.044.223-.047.133-.317S715.985,706.031,715.445,706.031Z" transform="translate(-592.609 -583.923)" fill="#b4b4b5"/><path d="M748.434,1017.28c-.368-.006-.585.366-.5.545s.416-.157.384-.189c0,0,.6-.287.189-.35A.571.571,0,0,0,748.434,1017.28Z" transform="translate(-620.157 -839.758)" fill="#b4b4b5"/><path d="M30.313,1026a2.918,2.918,0,0,1,.345.239A2.9,2.9,0,0,0,30.313,1026Z" transform="translate(-30.313 -846.925)" fill="#b4b4b5"/><path d="M107.744,1048.682c-.185.017-.319.164-.117.456,0,0,.54.316.54-.134A.367.367,0,0,0,107.744,1048.682Z" transform="translate(-93.779 -865.568)" fill="#b4b4b5"/><path d="M46.5,1087.78a1.445,1.445,0,0,0,.223.134A1.445,1.445,0,0,1,46.5,1087.78Z" transform="translate(-43.618 -897.706)" fill="#b4b4b5"/><path d="M68.875,1091.19c.03.035.065.076.095.117C68.939,1091.265,68.906,1091.226,68.875,1091.19Z" transform="translate(-62.009 -900.509)" fill="#b4b4b5"/><path d="M69.406,1091.84c.089.122.169.261.256.406C69.577,1092.1,69.494,1091.96,69.406,1091.84Z" transform="translate(-62.446 -901.043)" fill="#b4b4b5"/><path d="M71.844,1095.75a2.907,2.907,0,0,0,.184.262A2.9,2.9,0,0,1,71.844,1095.75Z" transform="translate(-64.45 -904.257)" fill="#b4b4b5"/><path d="M91.125,1142.75c.1.2.19.4.289.573C91.313,1143.153,91.225,1142.949,91.125,1142.75Z" transform="translate(-80.298 -942.889)" fill="#b4b4b5"/><path d="M98.313,1198.94a2.328,2.328,0,0,0,.189.39A2.328,2.328,0,0,1,98.313,1198.94Z" transform="translate(-86.206 -989.075)" fill="#b4b4b5"/><path d="M123.239,1205.527a1.472,1.472,0,0,0-.4.044A1.476,1.476,0,0,1,123.239,1205.527Z" transform="translate(-106.37 -994.489)" fill="#b4b4b5"/><path d="M131.938,1205.808a.261.261,0,0,1,.089.011A.25.25,0,0,0,131.938,1205.808Z" transform="translate(-113.845 -994.72)" fill="#b4b4b5"/><path d="M129.7,1206.28a.576.576,0,0,1-.2.067A.577.577,0,0,0,129.7,1206.28Z" transform="translate(-111.841 -995.108)" fill="#b4b4b5"/><path d="M136.99,1206.31a2.189,2.189,0,0,1-.74.189A2.191,2.191,0,0,0,136.99,1206.31Z" transform="translate(-117.389 -995.133)" fill="#b4b4b5"/><path d="M134.063,1206.81a.729.729,0,0,0,.239.089A.734.734,0,0,1,134.063,1206.81Z" transform="translate(-115.591 -995.544)" fill="#b4b4b5"/><path d="M115.562,1212.97a.509.509,0,0,1-.156.072A.508.508,0,0,0,115.562,1212.97Z" transform="translate(-100.256 -1000.607)" fill="#b4b4b5"/><path d="M113.968,1213.37a1.162,1.162,0,0,0-.312.134A1.163,1.163,0,0,1,113.968,1213.37Z" transform="translate(-98.818 -1000.936)" fill="#b4b4b5"/><path d="M111.667,1215.12a1.947,1.947,0,0,0-.167.217A1.936,1.936,0,0,1,111.667,1215.12Z" transform="translate(-97.046 -1002.374)" fill="#b4b4b5"/><path d="M109.757,1218.28c-.04.068-.07.127-.1.178C109.687,1218.407,109.716,1218.348,109.757,1218.28Z" transform="translate(-95.53 -1004.972)" fill="#b4b4b5"/><path d="M104.875,1218.44a.848.848,0,0,0,.072.317A.849.849,0,0,1,104.875,1218.44Z" transform="translate(-91.6 -1005.103)" fill="#b4b4b5"/><path d="M591.707,1304.66a1.384,1.384,0,0,0-.3.111A1.349,1.349,0,0,1,591.707,1304.66Z" transform="translate(-491.51 -1075.973)" fill="#b4b4b5"/><path d="M587.077,1306c-.247.137-.5.3-.64.4C586.58,1306.3,586.83,1306.137,587.077,1306Z" transform="translate(-487.425 -1077.074)" fill="#b4b4b5"/><path d="M592.05,1308.25a.146.146,0,0,0-.039.134A.14.14,0,0,1,592.05,1308.25Z" transform="translate(-492.003 -1078.924)" fill="#b4b4b5"/><path d="M486.9,1310.9a.226.226,0,0,0-.056.017.192.192,0,0,1,.122-.011.167.167,0,0,0-.067-.005Z" transform="translate(-405.563 -1081.105)" fill="#b4b4b5"/><path d="M593.531,1311.28c.076.108.144.208.211.3C593.675,1311.489,593.607,1311.388,593.531,1311.28Z" transform="translate(-493.256 -1081.414)" fill="#b4b4b5"/><path d="M600.995,1313.44a.858.858,0,0,0-.245.156A.859.859,0,0,1,600.995,1313.44Z" transform="translate(-499.19 -1083.19)" fill="#b4b4b5"/><path d="M599.928,1314.31a.839.839,0,0,1-.178.106A.839.839,0,0,0,599.928,1314.31Z" transform="translate(-498.368 -1083.905)" fill="#b4b4b5"/><path d="M609.712,1313.5c-.018.2-.032.38-.056.523C609.68,1313.88,609.694,1313.7,609.712,1313.5Z" transform="translate(-506.511 -1083.239)" fill="#b4b4b5"/><path d="M596.594,1314.78a.67.67,0,0,0,.217.067A.639.639,0,0,1,596.594,1314.78Z" transform="translate(-495.774 -1084.291)" fill="#b4b4b5"/><path d="M496.671,1314.91a1.3,1.3,0,0,0-.078.223A1.267,1.267,0,0,1,496.671,1314.91Z" transform="translate(-413.577 -1084.398)" fill="#b4b4b5"/><path d="M607.531,1317.06a.821.821,0,0,0,.106.072A.771.771,0,0,1,607.531,1317.06Z" transform="translate(-504.764 -1086.165)" fill="#b4b4b5"/><path d="M608.959,1317.31a.125.125,0,0,1-.083.061A.125.125,0,0,0,608.959,1317.31Z" transform="translate(-505.868 -1086.371)" fill="#b4b4b5"/><path d="M608.438,1317.583a.186.186,0,0,1-.095-.017A.174.174,0,0,0,608.438,1317.583Z" transform="translate(-505.432 -1086.581)" fill="#b4b4b5"/><path d="M628.54,1322.41a.963.963,0,0,1-.134.111A.867.867,0,0,0,628.54,1322.41Z" transform="translate(-521.922 -1090.563)" fill="#b4b4b5"/><path d="M500.281,1322.53a1.067,1.067,0,0,0,.284.167A1.072,1.072,0,0,1,500.281,1322.53Z" transform="translate(-416.608 -1090.661)" fill="#b4b4b5"/><path d="M518.031,1323.19a.116.116,0,0,1,.045.022A.1.1,0,0,0,518.031,1323.19Z" transform="translate(-431.198 -1091.204)" fill="#b4b4b5"/><path d="M521.031,1327.91a.346.346,0,0,0,.1.089A.35.35,0,0,1,521.031,1327.91Z" transform="translate(-433.664 -1095.084)" fill="#b4b4b5"/><path d="M521.594,1328.41a.081.081,0,0,1,.022.017A.061.061,0,0,0,521.594,1328.41Z" transform="translate(-434.127 -1095.495)" fill="#b4b4b5"/><path d="M521.755,1328.59a.193.193,0,0,1-.005.128A.192.192,0,0,0,521.755,1328.59Z" transform="translate(-434.255 -1095.642)" fill="#b4b4b5"/><path d="M649.531,1328.66a.981.981,0,0,1,.245.178A1.008,1.008,0,0,0,649.531,1328.66Z" transform="translate(-539.286 -1095.7)" fill="#b4b4b5"/><path d="M650.906,1329.66a9.607,9.607,0,0,0,.784.6A9.469,9.469,0,0,1,650.906,1329.66Z" transform="translate(-540.416 -1096.522)" fill="#b4b4b5"/><path d="M647.159,1329a.355.355,0,0,0-.033.05.387.387,0,0,1,.039-.05s0,0-.005,0Z" transform="translate(-537.309 -1095.977)" fill="#b4b4b5"/><path d="M634.483,1335.75a.373.373,0,0,0-.139.028.524.524,0,0,1,.306,0A.707.707,0,0,0,634.483,1335.75Z" transform="translate(-526.803 -1101.528)" fill="#b4b4b5"/><path d="M577.219,1338.47a3.468,3.468,0,0,1-.25.339A3.487,3.487,0,0,0,577.219,1338.47Z" transform="translate(-479.643 -1103.763)" fill="#b4b4b5"/><path d="M656.928,1343.03a1.332,1.332,0,0,0-.083.234A1.319,1.319,0,0,1,656.928,1343.03Z" transform="translate(-545.297 -1107.511)" fill="#b4b4b5"/><path d="M656.757,1344.34a.544.544,0,0,0-.017.184A.543.543,0,0,1,656.757,1344.34Z" transform="translate(-545.21 -1108.588)" fill="#b4b4b5"/><path d="M662.719,1346.09a.707.707,0,0,1,.267.128A.686.686,0,0,0,662.719,1346.09Z" transform="translate(-550.126 -1110.027)" fill="#b4b4b5"/><path d="M511.873,1347.25a3.593,3.593,0,0,0-.061.718A3.581,3.581,0,0,1,511.873,1347.25Z" transform="translate(-426.086 -1110.98)" fill="#b4b4b5"/><path d="M555.334,1351.44a1.89,1.89,0,0,0-.178.139A1.89,1.89,0,0,1,555.334,1351.44Z" transform="translate(-461.713 -1114.424)" fill="#b4b4b5"/><path d="M654.594,1359.06c.142.046.3.094.456.134C654.891,1359.154,654.736,1359.106,654.594,1359.06Z" transform="translate(-543.447 -1120.688)" fill="#b4b4b5"/><path d="M549.8,1359.88a2.47,2.47,0,0,1-.178.2A2.37,2.37,0,0,0,549.8,1359.88Z" transform="translate(-457.167 -1121.362)" fill="#b4b4b5"/><path d="M631.144,1360.94c-.08.024-.146.046-.206.067C631,1360.987,631.067,1360.963,631.144,1360.94Z" transform="translate(-524.003 -1122.233)" fill="#b4b4b5"/><path d="M629.52,1361.59a.8.8,0,0,0-.145.117A.8.8,0,0,1,629.52,1361.59Z" transform="translate(-522.719 -1122.767)" fill="#b4b4b5"/><path d="M547.5,1373.09a1.325,1.325,0,0,0-.312.428A1.365,1.365,0,0,1,547.5,1373.09Z" transform="translate(-455.164 -1132.22)" fill="#b4b4b5"/><path d="M616.421,1377.84c-.143.1-.786.515-1.046.651C615.634,1378.355,616.278,1377.935,616.421,1377.84Z" transform="translate(-511.211 -1136.124)" fill="#b4b4b5"/><path d="M612.125,1379.59a1.234,1.234,0,0,1,.284.095A1.24,1.24,0,0,0,612.125,1379.59Z" transform="translate(-508.54 -1137.563)" fill="#b4b4b5"/><path d="M532.51,1390.53a3.68,3.68,0,0,1-.323.273A3.671,3.671,0,0,0,532.51,1390.53Z" transform="translate(-442.834 -1146.555)" fill="#b4b4b5"/><path d="M599.024,1391.78a2.14,2.14,0,0,0-.056.523A2.137,2.137,0,0,1,599.024,1391.78Z" transform="translate(-497.725 -1147.582)" fill="#b4b4b5"/><path d="M528.433,1393.41a1.938,1.938,0,0,0-.339.2A1.965,1.965,0,0,1,528.433,1393.41Z" transform="translate(-439.469 -1148.922)" fill="#b4b4b5"/><path d="M599.125,1398.03c.014.2.03.393.033.568C599.155,1398.423,599.139,1398.229,599.125,1398.03Z" transform="translate(-497.854 -1152.719)" fill="#b4b4b5"/><path d="M519.115,1399.94a4.248,4.248,0,0,1-.49.178A4.267,4.267,0,0,0,519.115,1399.94Z" transform="translate(-431.686 -1154.289)" fill="#b4b4b5"/><path d="M511.094,1401.91a.515.515,0,0,0,.134.045A.515.515,0,0,1,511.094,1401.91Z" transform="translate(-425.496 -1155.909)" fill="#b4b4b5"/><path d="M511.844,1402.16a.691.691,0,0,0,.245,0A.691.691,0,0,1,511.844,1402.16Z" transform="translate(-426.113 -1156.114)" fill="#b4b4b5"/><path d="M577.546,1431.72a1.211,1.211,0,0,0-.234.328A1.222,1.222,0,0,1,577.546,1431.72Z" transform="translate(-479.925 -1180.411)" fill="#b4b4b5"/><path d="M576.272,1437.69c-.023.247-.022.445-.022.445S576.248,1437.936,576.272,1437.69Z" transform="translate(-479.052 -1185.318)" fill="#b4b4b5"/></g><g transform="translate(-3424.219 -701.047)"><path d="M210.1,189.641s3.487,2.448,4.377,2.819a6.376,6.376,0,0,0,3.338.3c.964-.223,2-.445,2.671-.519s.371-.371.371-.371m-65.5,30.934s1.261-2.448,1.558-2.819,13.724-14.911,15.5-15.949.148-.816,3.264-1.113a49.444,49.444,0,0,1,6.083-.371c.816.074,6.6.445,6.6.445m2.893-132.268s-4.9-3.932-5.86-4.377-5.267-.371-6.083-.816a5.378,5.378,0,0,1-2-1.78c-.148-.445-.816-2.151-1.78-2.374a2.479,2.479,0,0,0-1.706.223m43.62,58.456s.148-.668-.148-.816-1.78-1.039-1.855-1.558-1.187-3.338-1.113-3.709.3-4.154.593-5.415,2.151-5.267,2.151-5.86-.3-2.151.3-2.819,2.151-.593,2.671-.668,1.261.371,1.335-.668.445-3.116.074-3.561.3-.964-1.632-2-2.967-.816-3.635-1.484-2.819-1.855-3.412-2.6-.3-.668-1.187-.816a12.831,12.831,0,0,0-3.783.074c-.742.223-2.671,1.187-3.635.89a35.237,35.237,0,0,1-4.97-2.225,5.416,5.416,0,0,1-1.187-1.632,43.673,43.673,0,0,1-2.151-4.674,16.492,16.492,0,0,0-1.558-3.412c-.371-.371-.371-1.484-1.261-2.967s-.445-2.671-.668-3.487a3.513,3.513,0,0,0-.519-1.187m-28.1,242.658a26.536,26.536,0,0,1-.525-5.875c.21-2.2-.42-3.882,0-4.931s0-1.888,0-3.357-.01-2.386.88-3.128.816-2.226,1.261-2.671,2.522-.519,3.487-2.225,2.671-4.3,2.745-4.674,1.261-1.78,1.113-3.19a4.66,4.66,0,0,1,.668-2.967c.445-.964.223-1.113.742-1.706a2.915,2.915,0,0,0,.964-1.558c.148-.742,1.261-1.558,1.039-2.225a21.042,21.042,0,0,1-.742-5.341,12.511,12.511,0,0,0,.223-3.264c-.148-1.187.074-1.41-.668-1.484s-1.706.074-1.706-.3M126.821,162.416a32.545,32.545,0,0,1-1.783-5.455c-.21-1.679-.315-1.364.525-3.252s.42-2.1-.1-2.937-.839-.21-.42-1.364.1-1.154-.525-2.937.1-.629-.629-2.518-.42-.42-.525-2.413,0-1.783,0-1.783m-6.609,26.123a23.026,23.026,0,0,0-.839-3.147,51.525,51.525,0,0,1-1.049-5.246,4.785,4.785,0,0,1,.734-3.987c.525-.525.1-.734,1.364-.21a5.054,5.054,0,0,1,2.728,2.833c.1.839.42,1.993.525,2.623a20.378,20.378,0,0,0,.734,3.462,12.377,12.377,0,0,1,.629,1.993m30.883,90.129s-7.2-10.015-7.938-11.8-3.783-4.08-4.6-6.38-3.412-5.193-3.932-6.231a43.655,43.655,0,0,0-2.967-4.525,41.6,41.6,0,0,1-2.671-4.9c-.445-1.039-1.706-1.855-2.077-2.3s-2.745-4.451-2.967-4.9-.3-.445-.3-.445m83.678-68.99a10.594,10.594,0,0,1,.371,2.077,5.952,5.952,0,0,0-.3,1.335,5.943,5.943,0,0,1-.3,2.6,3.517,3.517,0,0,0-.223,2.374,15.316,15.316,0,0,1,.371,2.6,2.038,2.038,0,0,0,.89,1.632c.371.223.3,1.335.593,1.929a19.152,19.152,0,0,1,1.039,2.893c.148.668,1.039,2,1.409,3.041a43.883,43.883,0,0,1,1.632,4.6c.074.742-.3,3.709-.3,4.451s-.816,3.412-.816,3.709-.148,1.187.445,1.409a6.471,6.471,0,0,1,.964.445m-13.5-33.827a12.274,12.274,0,0,1,.371-2.448c.223-.371,1.855-4.525,2.151-4.9a42.468,42.468,0,0,0,1.632-4.08,14.58,14.58,0,0,0,.445-1.78m-16.024,15.949a24.254,24.254,0,0,1-1.855-2.374c-.074-.3-.593-2.671-.816-3.338a2.416,2.416,0,0,0-.371-.816m-12.463,9.57a10.552,10.552,0,0,0,2-.148,70.393,70.393,0,0,1,7.122-.668,14.641,14.641,0,0,0,3.338-.89,6.019,6.019,0,0,1,2.077-.964c.668,0,1.113-.371,1.855-.89s3.487-.519,4.228-.816,2.3.445,3.561.519a5.03,5.03,0,0,1,2.448,1.039m-1.335-34.643a24.446,24.446,0,0,1,.964-3.635c.3-.371,3.264-3.709,3.412-5.119s.148-4.3-1.113-4.6-3.858.445-4.748.074a31.426,31.426,0,0,0-4.3-1.78,7.035,7.035,0,0,1-1.261,0c-.371-.074-.964-.223-.964-.223m-16.469,50s1.113-5.267,1.335-5.786a72.506,72.506,0,0,0,2-7.27c.074-.964,1.484-6.38,1.558-6.825a25.112,25.112,0,0,1,.371-3.487c.223-.3,12.389-17.73,12.389-17.73s2.6,2.671,3.412,2.967,3.561,3.338,3.932,3.858,1.78,2.151,2.448,2.3a2.349,2.349,0,0,1,1.632,1.78,15.235,15.235,0,0,1,.668,3.635c-.074.3-.519,2.745-.519,3.116s.148,2.819.3,3.635a34.956,34.956,0,0,0,1.261,3.561m-41.373-39.7a8.919,8.919,0,0,1-2.413,1.993c-1.049.42-1.679.21-2.2,1.259s-1.574,1.469-1.783,2.413a6.8,6.8,0,0,1-1.049,2.308,15.1,15.1,0,0,0-1.364,2.413,19.229,19.229,0,0,0-.629,1.993c-.21.525.1.839-.525,1.259a3.916,3.916,0,0,0-1.049,2.413c-.1.734-.839.315-1.364,1.574s-.525.734-1.259,1.049-1.679,1.993-1.679,1.993a1.231,1.231,0,0,0-1.049,1.469c.1,1.364,1.049,5.875,1.993,6.295s2.938,1.259,3.567,2.1a2.883,2.883,0,0,0,2.308.839c.42,0,1.049-.1,1.154.734a23.558,23.558,0,0,1-.629,5.036c-.21.42-.839.42-.734,2.518s-.315,1.469-.21,2.308a13.119,13.119,0,0,0,1.364,2.938l-.108.358a5.924,5.924,0,0,1,.964-1.78,7.057,7.057,0,0,1,2.819-1.855c.519-.074,3.709-3.338,5.564-4.006s3.116-.89,4.006.223a38.2,38.2,0,0,0,5.564,4.748c1.78,1.261,4.154,2.819,4.451,3.412s2.819,2.077,3.412,2.374,2.671,1.409,3.487.519,1.558-1.039,1.558-1.632-.223-1.706,1.039-1.78,3.709-1.929,4.822-2a2.932,2.932,0,0,0,2-.593c.593-.445,2.3-.148,2.3-.148M156.091,85.831a2.256,2.256,0,0,0-.839,2.308,9.308,9.308,0,0,0,1.993,3.357,2.91,2.91,0,0,1,.629,2.308c-.1.944-1.469,2.938-1.679,3.357a5.47,5.47,0,0,0-.525,2.623c.1,1.049.315,2.2.315,2.2m-.857,191.436s-1.484.148-1.706-.371-1.632-1.113-1.632-1.113-.668-1.484-1.187-1.558-2,.074-2.077-1.187-.816-6.38-.964-6.9-.371-.371-1.187-1.706-1.335-1.78-.964-2.671-.371-2.6-.223-3.561.223-3.561,1.039-4.97.816-1.484.89-2.151-.074-1.335,2.893-2.819,7.789-3.338,7.863-4.154a3.612,3.612,0,0,1,1.039-2.671,10.8,10.8,0,0,0,2-3.19c.371-.742.3-1.632,1.409-2.225s3.19-4.9,3.19-5.267a10.272,10.272,0,0,1,1.335-3.041c.519-.668,1.113-1.632,1.113-1.632m43.471-18.175s-3.116,2.745-4.08,2.967-1.78.074-2.819.816-3.116,1.558-4.006,2.374-.964.816-.816,1.632.371,1.187.074,1.632a2.15,2.15,0,0,0-.519,1.484,4.3,4.3,0,0,1-.593,2.671c-.668.89-1.484,2.6-1.261,3.338a5.813,5.813,0,0,1,.074,2,9.219,9.219,0,0,0,.223,3.116,11.582,11.582,0,0,1,.371,2.6c.074.445,0,1.484.074,2.967s-.148,1.039-.148,1.039" transform="translate(-92.073 -60.414)" fill="none" stroke="#fff" stroke-width="1" stroke-dasharray="1 1"/><path d="M178.894,245.116s-1.558-8.234-1.632-8.605a4.791,4.791,0,0,1-.3-1.929c.148-.668.445-2.6.445-2.6a1.773,1.773,0,0,1-.445-1.335,6.072,6.072,0,0,0,.148-1.187M170.437,58.027l1.187-.593s.223-1.187-.148-1.187a10.487,10.487,0,0,0-2.077,1.113m17.507,12.612,3.041-4.674M142.025,79.689s.371,3.709,1.929,3.412,1.78.074,2.6-.89a8.856,8.856,0,0,1,2.522-2,.587.587,0,0,1,.519.148M209.9,123.383s-.668-.223-.223-1.187.816-2.374.964-2.671a1.986,1.986,0,0,1,.89-1.113c.742-.519,3.858-2.6,3.858-2.6M194.7,139.7s1.706.816,2,.668a3.335,3.335,0,0,1,1.335-.223c.519,0,.668.223,1.335.223s4.9-.519,5.638-.371a5.518,5.518,0,0,0,2.3-.594M219.335,235.1a5.173,5.173,0,0,1-1.259-1.521c-.21-.629-1-4.931-1-4.931m.367,9.442a6.442,6.442,0,0,0,0-1.783c-.157-.525-.944-3.619-1.154-5.036s-.472-1.469.42-2.1.157-1.731.1-2.518-.262-2.675-.262-2.675,1-.315,1.049.315a2.911,2.911,0,0,1-.682,1.521s2.518,2.99,2.728,3.3a2.6,2.6,0,0,0,1.521,1.154,3.866,3.866,0,0,0,1.154.1M215.1,194.747s-1.113,1.706-.964,2.374a11.48,11.48,0,0,1,.519,3.19c-.148.742-.742,1.409-.816,1.855s-.445,1.558-.593,2.745.074.964.074,1.484a13.966,13.966,0,0,1-.223,1.706m10.163-10.089s-.223,1.409.3,1.113a2.222,2.222,0,0,1,1.187-.223m-53.931,60.386s.074-4.6,0-5.49-.519-4.08-.593-4.6-1.113-4.08-1.261-5.044-1.41-5.267-1.558-5.935-.593-.668-.593-.668-1.558-.371-1.113.445.519,1.113.964,0,2.6-2.077,2.967-2.374,8.234-3.932,8.605-4.154,7.344-3.338,7.789-3.932,4.6-5.267,4.9-5.638.742-.593,1.929-.964a4.069,4.069,0,0,0,2.671-2c.89-1.335,1.558-2.671,2.3-2.151s1.484-.816,1.855-1.335a43.866,43.866,0,0,0,2.374-5.49c.074-.519.519-.89,1.187-1.187a40.075,40.075,0,0,0,4.822-2.671c.816-.668,3.041-3.264,3.041-3.264s4.228-1.78,4.674-1.855,8.234-3.19,8.234-3.19m-101.757,15.8a4.833,4.833,0,0,0,.525-1.941c.052-1.1.052-1.626.052-2.413a6.936,6.936,0,0,0-.1-1.993c-.21-1.206-.21-1.679-.839-2.256s-.1-1.049-.892-1.364a1.507,1.507,0,0,1-1.049-1c-.157-.367-2.57-5.3-2.78-5.665s-.21-.1-.1-.892.734-2.518.734-2.937-.1-.367-.1-.367l-5.718-.1m60.271,11.593s-1.1-2.151-1.259-2.623-.42-1.784-.577-2.308-.944-.525-2.78-.577a8.393,8.393,0,0,0-3.2.21c-.734.262-3.987,1.626-4.3,1.574s-4.773-.367-4.773-.367m14.95-11.016s2.308,2.728,2.78,3.41,1.259.839,1.469,1.259,3.462,4.249,3.567,4.459.525.315.734.367a.649.649,0,0,1,.577.472c.1.367.577,2.046.577,2.046M169.45,185.106l.892,4.039-1.049,1.679m-.682-9.862a21.4,21.4,0,0,0,1.416,1.993c.262.21.944.472.682.787s-1.993,2.046-1.993,2.046m-1.206-2.728s-.472-.525-1.783-.157m3.3-10.124s-.052,2.361-.1,2.728a23.547,23.547,0,0,0-.472,3.042,10.6,10.6,0,0,0,.262,2.413c.1.21-1.154,1.783-1.364,2.151l-.21.629m5.4-39.866s-1.154,4.564-1.311,5.35a25.255,25.255,0,0,0-.21,2.57,3.164,3.164,0,0,0,.157,2.046c.42.839,1.993,4.826,2.151,5.141a14.532,14.532,0,0,1,.315,1.993c.1.577.315,8.235.315,8.235l-.262.734a13.183,13.183,0,0,1-1.259,1.364c-.262.157-5.4,2.308-5.4,2.308M132.311,155s2.728-1.1,3.095-1.154a1.383,1.383,0,0,0,1-.787c.315-.525,2.361-2.938,2.361-2.938a11.482,11.482,0,0,1,1.049-1.206,4,4,0,0,1,1.836-.839c.839-.157,2.465-.367,3.095-1.364s8.97-12.8,8.97-12.8l.472-.629a11.368,11.368,0,0,1,1.626,1.311c.734.734,5.3,6.137,7.816,7.763s3.777,2.308,4.039,2.728a21.273,21.273,0,0,0,3.567,4.249m22.136,2.465,4.406.42m.839,11.54,1.206-.42m-1.364-3.252s-1.1.315-1.1.734-.052.577-.1,1.154a1.409,1.409,0,0,0,.629,1.311c.42.315.944.42,1.206.944a3.053,3.053,0,0,0,1.154,1.049,2.775,2.775,0,0,0,.682.315m-.472-.892a17.2,17.2,0,0,1,2.99-1.574c.472,0,1.626-.157,1.679-.525s.21-.892-.525-.734-.892,1.154-.892,1.154m-1.049,17.258a1.841,1.841,0,0,0,.682-1.206c.052-.734-.367-2.728-.42-3.567s.367.157,1,.1a16.5,16.5,0,0,1,1.679,0m-8.655,9.914a2.1,2.1,0,0,0,1.206.734,12.627,12.627,0,0,0,2.623-.052l-2.046-1.416,2.046-.682m.367,6.347s.577.367.262.525-1.521,1.049-1.521,1.049m9.442-3.672L207.795,186m5.875,3.462a5.922,5.922,0,0,0,.157-1.416,9.9,9.9,0,0,1,.1-1.469m4.878.42,2.256-1.206m-1,3.829s1.521-1.1,1.626-1.626-1.154-3.147-1.154-3.672a5.651,5.651,0,0,0-.367-1.469m-2.99.472s1.364,0,1.783.682,2.046,4.721,2.046,4.721m-6.767-7.449a1.159,1.159,0,0,0-.682-.682c-.577-.262-1.311-.052-1.469-.839s-.315-1.731-.315-1.731l-.157-.21m1.416,6.924,1-2.728m-2.675,1.626,1-1m-1.416-2.308s.577-.262.892.629.315,1.626,1,2.046a2.182,2.182,0,0,0,1.679.157,1.863,1.863,0,0,0,1.416-1.1m-4.773-7.711s.1.262-.367.944-1.311.944-1.364,1.469,0,1.206.367,1.469.472.944.577,1.259.472,1,.682.944,0,.734,0,.734l.052.052" transform="translate(-89.8 -56.246)" fill="none" stroke="#fff" stroke-width="1"/><path d="M105.9,188.182l2.6-.223m-1.929-1.78-.742-4.451m-5.044.3a22.3,22.3,0,0,1,4.748-.3c1.558.223,3.116,1.706,3.783,1.484s.816-.445.519-1.113a10.109,10.109,0,0,0-3.264-2.893,29.313,29.313,0,0,0-3.932.148m-8.1-41.67a2.711,2.711,0,0,0,1.888-.629c.839-.734,3.147-3.252,3.987-3.462a21.077,21.077,0,0,0,3.567-2.1c.839-.525,1.993-1.783,2.518-1.993a7.734,7.734,0,0,0,1.154-.629m7.868,61.687a4.66,4.66,0,0,1-4.092,1.469c-2.308-.525-3.252-.21-4.092-1.574s-1.993-2.833-2.413-3.567a12.331,12.331,0,0,1-.944-3.987c0-.944-7.239-15.527-7.554-16.681a13.427,13.427,0,0,1-.944-5.246,100.983,100.983,0,0,1,.839-12.9,16.239,16.239,0,0,0,0-2.308l-7.344-30.424-1.364-6.085-2.1-28.536a12.257,12.257,0,0,0-1.049-5.56c-1.259-2.518-1.993-3.777-5.246-5.141s-5.35-1.888-6.295-2.728-3.987-2.938-4.406-3.357-1.154-1.049-1.154-1.049-2.413-.1-2.2,1.154-.629,1.154-.839,1.574-2.623,2.833-2.623,3.357.1.525-.525,1.469-1.993,2.623-2.623,2.623-1.364-.21-1.993.629-1.364,1.888-2.518,1.469-2.518-.944-3.147.42-1.679,3.882-2.2,4.3a8.125,8.125,0,0,0-1.364,3.672c0,.839-.629,2.413.629,2.728s5.35,1.679,7.029,3.462,3.462,3.987,5.98,4.2,2.833.525,3.672,2.308,1.888,2.518,3.462,3.777,2.728,1.993,3.567,1.993a5.005,5.005,0,0,1,3.042,1.154,2.787,2.787,0,0,0,2.518,1.154,14.219,14.219,0,0,1,4.092.839c1.469.42,6.085,1.888,6.085,1.888m11.121,85.4a7.247,7.247,0,0,1,1.888-.944c.839-.21.944-.1.944-.1l1.364,1.679m-4.3-4.931,2.1-2.623m7.973,1.049a2.813,2.813,0,0,0,1.154,3.042c1.679.944,2.833,1.364,4.092.629s1.154-1.574.839-2.2-.525-1.469-1.049-1.574-1.364.42-1.783.42a31.367,31.367,0,0,1-4.3-.42c-.525-.21-2.308-.42-2.833-.629s-3.462.21-5.036-.42-5.141-1.574-5.875-1.888-4.406-.734-5.875-1.574-5.35-3.987-7.554-4.511-3.147-.42-5.665-1.783a52.946,52.946,0,0,1-8.078-5.246c-2.413-1.993-5.56-5.56-8.812-5.246s-8.288,1.574-8.917,1.574-3.147.42-4.2-.21-7.344-3.777-7.868-4.092-6.714-1.888-6.714-1.888a21.813,21.813,0,0,0-3.882,1.364,11.035,11.035,0,0,1-3.777,1.364,15.882,15.882,0,0,0-4.721,1.888,10.671,10.671,0,0,0-1.783,1.993l-3.672.21s0,2.413-.1,3.042-.629,5.77-.734,6.19,1.888,7.344,1.993,7.868-.21,1.888-.1,2.937a14.707,14.707,0,0,0,.629,4.511c.839,3.462,1.574,6.295,1.574,6.295s2.938.315,5.246.734S53.2,205.666,53.2,205.666l12.17,6.085m52.56-23.4s-1.049-1.049-1.783-1.049-3.567.21-3.567.21l-.944-.21m-.42-.42,4.406,3.882s6.295,12.589,6.609,13.638-.315,1.049-.315,1.364-6.5,14.687-6.609,16.051-.525,2.308-.629,3.462-.42,4.092-.42,4.092l-3.882.525s-4.406-5.665-4.931-6.295-2.937-2.2-3.987-3.252L85.509,204.407l-.734-.839M57.183,313.408s-1.049-5.455-1.364-6.4-.839-4.721-1.154-5.141a6.2,6.2,0,0,1-.525-.839,33.682,33.682,0,0,0-2.518-3.567c-.525-.42-2.308-5.98-2.413-6.609s-.944-3.777-.525-4.721-.21-1.574-.42-3.357a16.475,16.475,0,0,1,.525-4.931c.21-1.049,1.259-4.616,1.154-6.19s-.315-9.127-.525-10.6a89.547,89.547,0,0,0-3.777-11.33c-.525-.734-5.875-11.645-5.875-11.645M-12.5,255.54,8.271,271.712s.443.257,1.387-.372,3.987-3.042,4.616-2.937,1.993-.839,2.833-1.259,5.141-2.937,5.665-4.3.42-3.252,1.049-3.882,0-2.833-.21-3.357-.629-2.413.1-3.357,2.938-1.783,3.252-2.2,12.8-11.96,12.8-11.96,2.728-6.19,3.147-6.4,6.714-6.5,10.281-9.967,6.714-6.609,7.344-6.924,6.085-3.672,6.609-3.987,20.143-7.973,20.143-7.973a30.171,30.171,0,0,0,3.174-1.6c1.039-.668,18.768-12.166,18.768-12.166m-10.717,6.837-.1-11.016,2.661-.792,3.412,1.187" transform="translate(12.5 -61.699)" fill="none" stroke="#fff" stroke-width="1"/></g><g transform="translate(-3400.876 -700.569)"><g transform="translate(96.878 120.911)"><g transform="translate(0 0)"><path d="M494.581,381.853a2.408,2.408,0,1,1-2.408-2.408A2.408,2.408,0,0,1,494.581,381.853Z" transform="translate(-487.914 -377.304)" fill="#585858" stroke="#585858" stroke-dashoffset="8" stroke-width="3.665"/><path d="M16.791,77.47l-2.639-2.055-2.626,2.072,1.139-3.145L9.884,72.485l3.343.112.907-3.219.927,3.214,3.342-.133-2.77,1.874Z" transform="translate(-9.884 -69.377)"/></g></g><path d="M238.833,184.4a1.163,1.163,0,1,1-1.163-1.163A1.163,1.163,0,0,1,238.833,184.4Z" transform="translate(-149.89 -61.576)" stroke="#585858" stroke-dashoffset="8" stroke-width="1.901"/><path d="M163.6,126.31a.8.8,0,1,1-.8-.8A.8.8,0,0,1,163.6,126.31Z" transform="translate(-51.942 14.765)" stroke="#585858" stroke-dashoffset="8" stroke-width="1.302"/><path d="M163.6,126.31a.8.8,0,1,1-.8-.8A.8.8,0,0,1,163.6,126.31Z" transform="translate(-65.79 -59.932)" stroke="#585858" stroke-dashoffset="8" stroke-width="1.302"/><path d="M144.792,111.79a.705.705,0,1,1-.705-.705A.705.705,0,0,1,144.792,111.79Z" transform="translate(-40.569 55.303)" stroke="#585858" stroke-dashoffset="8" stroke-width="1.152"/><path d="M144.792,111.79a.705.705,0,1,1-.705-.705A.705.705,0,0,1,144.792,111.79Z" transform="translate(-59.663 -5.545)" stroke="#585858" stroke-dashoffset="8" stroke-width="1.152"/><path d="M144.792,111.79a.705.705,0,1,1-.705-.705A.705.705,0,0,1,144.792,111.79Z" transform="translate(-87.569 -111.085)" stroke="#585858" stroke-dashoffset="8" stroke-width="1.152"/><path d="M144.792,111.79a.705.705,0,1,1-.705-.705A.705.705,0,0,1,144.792,111.79Z" transform="translate(-143.382 -7.223)" stroke="#585858" stroke-dashoffset="8" stroke-width="1.152"/></g><g transform="translate(-3374.567 -667.696)"><text transform="translate(2.768 135.698) rotate(-43.78)" fill="#5e5e5e" font-size="4" font-family="SegoeUI, Segoe UI"><tspan x="0" y="0">Salwa Rd</tspan></text><text transform="translate(51.99 0.683) rotate(80.17)" fill="#5e5e5e" font-size="4" font-family="SegoeUI, Segoe UI"><tspan x="0" y="0">Al Shamal Rd</tspan></text><text transform="translate(12.723 73.709) rotate(20.17)" fill="#5e5e5e" font-size="4" font-family="SegoeUI, Segoe UI"><tspan x="0" y="0">Dukhan Hwy</tspan></text></g><g transform="translate(-3410.124 -709.281)"><rect width="156.674" height="255.783" transform="translate(0 0)" fill="none"/></g></g></g></svg>