<svg xmlns="http://www.w3.org/2000/svg" width="80" height="80" viewBox="0 0 80 80"><g transform="translate(-53 -1439)"><rect width="80" height="80" rx="16" transform="translate(53 1439)" fill="none"/><g transform="translate(61 1453.447)"><path d="M3,14.553v14.5a1,1,0,0,0,.115.466l2.126,6.737a4,4,0,0,0,3.815,2.8H54.944a4,4,0,0,0,3.815-2.8l2.126-6.737A1,1,0,0,0,61,29.053v-14.5a3,3,0,0,0-3-3H6a3,3,0,0,0-3,3Zm55.619,15.5H5.381l1.768,5.6a2,2,0,0,0,1.907,1.4h7.256L17.6,33.695a1,1,0,0,1,.934-.642H45.47a1,1,0,0,1,.934.642l1.284,3.358h7.256a2,2,0,0,0,1.907-1.4l1.768-5.6Zm-40.166,7,.766-2H44.781l.766,2H18.453ZM36.1,28H59V21.553H48v2.5a1,1,0,0,1-1,1H39.211A8.569,8.569,0,0,1,36.1,28ZM16,21.553H5V28H27.9a8.569,8.569,0,0,1-3.113-2.947H17a1,1,0,0,1-1-1v-2.5Zm16-7.5a6.5,6.5,0,1,1-6.5,6.5A6.5,6.5,0,0,1,32,14.053Zm1.538,9.018a.283.283,0,0,0-.052-.424,2.574,2.574,0,0,0-2.977,0,.283.283,0,0,0-.053.424l1.333,1.486a.278.278,0,0,0,.414,0l1.335-1.484ZM18,18.053v5h5.874a8.543,8.543,0,0,1,0-5Zm22.126,0a8.543,8.543,0,0,1,0,5H46v-5ZM32,20.936a3.984,3.984,0,0,1,2.395.8.28.28,0,0,0,.378-.031l.477-.531a.281.281,0,0,0-.03-.408,5.142,5.142,0,0,0-6.436,0,.28.28,0,0,0-.031.407l.476.532a.279.279,0,0,0,.378.031A3.989,3.989,0,0,1,32,20.936Zm0-2.577a6.56,6.56,0,0,1,4.119,1.451.276.276,0,0,0,.381-.028l.43-.477A.284.284,0,0,0,36.9,18.9a7.436,7.436,0,0,0-9.8-.006.283.283,0,0,0-.028.407l.429.478a.276.276,0,0,0,.381.028A6.56,6.56,0,0,1,32,18.359Zm27,1.194v-5a1,1,0,0,0-1-1H36.821a8.542,8.542,0,0,1,2.39,2.5H47a1,1,0,0,1,1,1v2.5Zm-31.821-6H6a1,1,0,0,0-1,1v5H16v-2.5a1,1,0,0,1,1-1h7.789a8.542,8.542,0,0,1,2.39-2.5Z" fill="#2a357c" fill-rule="evenodd"/></g></g></svg>