<svg xmlns="http://www.w3.org/2000/svg" width="48" height="48" viewBox="0 0 48 48"><g transform="translate(-712 -2031)"><g transform="translate(719 2045)"><path d="M92.616,198.391,88.073,188.3l-4.924,2.211.329.737a7.205,7.205,0,0,1-3.372.225,7.236,7.236,0,0,0-2.289,0,7.089,7.089,0,0,0-1.76.529,5.9,5.9,0,0,0-.763.407L73.1,193.484a8.094,8.094,0,0,0-1.014-.121,7.358,7.358,0,0,1-3.294-.91l.468-.641-4.4-3.164L58.4,197.628l4.378,3.155.468-.642a7.225,7.225,0,0,1,1.907,2.835c.035.1.069.182.113.277l-.555.763a1.73,1.73,0,0,0,.39,2.41,1.686,1.686,0,0,0,.815.312c0,.087.009.173.017.26a1.771,1.771,0,0,0,.694,1.127,1.7,1.7,0,0,0,1.006.329.84.84,0,0,0,.147-.009,1.736,1.736,0,0,0,1.673,1.318,1.623,1.623,0,0,0,.537-.087,1.682,1.682,0,0,0,.555.676,1.7,1.7,0,0,0,1.006.329,1.433,1.433,0,0,0,.277-.026,1.729,1.729,0,0,0,1.127-.693l.347-.485,1.656.954a1.854,1.854,0,0,0,.936.251,1.779,1.779,0,0,0,1.352-.607,1.879,1.879,0,0,0,.4-.772,2.236,2.236,0,0,0,2.505-.824,2.241,2.241,0,0,0,.407-1.075,2.014,2.014,0,0,0-.009-.511,2.2,2.2,0,0,0,2.1-2.211,1.437,1.437,0,0,0,.381-.026,1.78,1.78,0,0,0,1.17-.728,2.354,2.354,0,0,0,.425-1.118.147.147,0,0,1,.009-.061c.121-.156.234-.321.338-.485a7.221,7.221,0,0,1,2.4-2.375l.321.7Zm-1.6-.615-2.7,1.214-3.546-7.88,2.7-1.214Zm-25.868-7.429,2.41,1.734L62.7,198.807l-.2.277-2.41-1.734Zm.555,14.382.754-1.049.043-.061a.519.519,0,0,1,.329-.208c.026,0,.052-.009.069-.009h.017a.191.191,0,0,1,.069.009H67a.222.222,0,0,1,.061.017h.017c.017.009.043.017.061.026s.009.009.017.009.043.026.061.035a.561.561,0,0,1,.139.147.653.653,0,0,1,.078.251v.069h0a.163.163,0,0,1-.017.069.435.435,0,0,1-.043.113.375.375,0,0,0-.035.061h0l-.8,1.11a.52.52,0,0,1-.329.208.515.515,0,0,1-.511-.8Zm1.647,2.419a.519.519,0,0,1-.208-.329.5.5,0,0,1,.087-.381l1.786-2.479a.519.519,0,0,1,.329-.208c.026,0,.052-.009.078-.009h.017a.191.191,0,0,1,.069.009h.009a.161.161,0,0,1,.061.017h.009a.43.43,0,0,1,.061.026c.009,0,.009.009.017.009s.043.026.061.035a.514.514,0,0,1,.208.468c0,.026-.009.043-.009.069,0,.009-.009.017-.009.026s-.009.026-.009.035-.009.017-.009.026-.009.026-.017.035a.045.045,0,0,0-.017.035c-.009.009-.009.017-.017.026h0l-1.786,2.479a.52.52,0,0,1-.329.208A.529.529,0,0,1,67.346,207.146Zm1.812,1.309a.511.511,0,0,1-.113-.711l1.786-2.479h0a.434.434,0,0,1,.061-.069l.017-.017a.487.487,0,0,1,.069-.052c.009,0,.009-.009.017-.009.026-.009.043-.026.069-.035.009,0,.009,0,.009-.009.026-.009.052-.017.087-.026a.032.032,0,0,0,.026-.009h.069a.239.239,0,0,1,.078.009h0a.163.163,0,0,1,.069.017h.009c.026.009.043.017.069.026a.008.008,0,0,1,.009.009c.017.009.043.026.061.035a.533.533,0,0,1,.191.269.506.506,0,0,1,.017.2.56.56,0,0,1-.1.251l-1.786,2.479A.516.516,0,0,1,69.158,208.455Zm2.479,1a.5.5,0,0,1-.381-.087.52.52,0,0,1-.208-.329.5.5,0,0,1,.087-.381l.8-1.11c.017-.017.026-.035.043-.052l.026-.026c.017-.017.035-.026.052-.043s.017-.017.026-.017.043-.017.061-.026.017-.009.026-.017l.1-.026c.026,0,.052-.009.069-.009h.017a.191.191,0,0,1,.069.009h.017a.222.222,0,0,1,.061.017H72.5c.017.009.043.017.061.026s.009.009.017.009.043.026.061.035a.514.514,0,0,1,.208.468.561.561,0,0,1-.1.251l-.78,1.11A.527.527,0,0,1,71.637,209.452ZM83.418,202.7h0a1.068,1.068,0,0,1-.2.529.577.577,0,0,1-.381.234.549.549,0,0,1-.433-.1l-.676-.485h0l-1.326-.954a.609.609,0,1,0-.711.988l1.326.954h0a1.015,1.015,0,0,1,.191,1.474,1.062,1.062,0,0,1-1.422.147l-.13-.1-.009-.009h0L78.009,204.2a.609.609,0,1,0-.711.988l1.638,1.179h0a1.027,1.027,0,0,1,.407.928.947.947,0,0,1-.182.485,1.006,1.006,0,0,1-.659.407.976.976,0,0,1-.754-.182l-.8-.572a.009.009,0,0,1-.009-.009l-1.552-1.118a.609.609,0,1,0-.711.988l1.552,1.118h0a.581.581,0,0,1,.234.407.632.632,0,0,1-.139.459.612.612,0,0,1-.772.1l-1.586-.919h0a.161.161,0,0,0,.017-.061c.009-.017.009-.035.017-.043s.009-.043.017-.061.009-.026.009-.043.009-.052.017-.069.009-.026.009-.043c.009-.035.009-.078.017-.113a1.733,1.733,0,0,0-.711-1.578,1.132,1.132,0,0,0-.13-.087c-.017-.009-.026-.017-.043-.026-.035-.017-.061-.035-.1-.052l-.052-.026c-.026-.009-.061-.026-.1-.035a.125.125,0,0,0-.061-.017c-.009,0-.026-.009-.035-.009v-.009a.6.6,0,0,0,.026-.069c.009-.017.009-.026.017-.043a.2.2,0,0,0,.017-.069c0-.017.009-.026.009-.043s.009-.052.017-.078c0-.009.009-.026.009-.035.009-.035.009-.078.017-.113h0a1.712,1.712,0,0,0-.615-1.5.61.61,0,0,0-.087-.069,1.218,1.218,0,0,0-.139-.087c-.017-.009-.026-.017-.043-.026l-.1-.052a.148.148,0,0,0-.043-.017c-.035-.017-.069-.026-.113-.043-.017-.009-.026-.009-.043-.017-.043-.009-.078-.026-.121-.035-.009,0-.026-.009-.035-.009l-.13-.026h-.026a.741.741,0,0,0-.139-.009h-.2c0-.009-.009-.017-.009-.026l-.026-.1c0-.017-.009-.026-.017-.043a.531.531,0,0,0-.043-.1.03.03,0,0,0-.009-.017.792.792,0,0,0-.061-.121c-.009-.009-.009-.017-.017-.035s-.035-.061-.052-.087c-.009-.009-.017-.026-.026-.035a.915.915,0,0,0-.069-.1l-.009-.009c-.026-.035-.061-.069-.087-.1l-.026-.026a.56.56,0,0,0-.078-.069.119.119,0,0,0-.035-.026,1.27,1.27,0,0,0-.113-.087,1.7,1.7,0,0,0-1.283-.3.731.731,0,0,0-.147.035c-.009,0-.026.009-.035.009a.764.764,0,0,0-.13.043c-.009,0-.009,0-.017.009a.968.968,0,0,0-.139.061c-.009.009-.026.009-.035.017-.035.017-.078.043-.113.061a.03.03,0,0,0-.017.009.617.617,0,0,0-.121.087l-.026.026c-.017.009-.026.026-.043.035h0l-.078-.1-.026-.026a.5.5,0,0,0-.061-.069l-.035-.035a.435.435,0,0,0-.069-.061.12.12,0,0,0-.035-.026l-.1-.078a1.7,1.7,0,0,0-1.283-.3.736.736,0,0,0-.147.035c-.009,0-.026.009-.035.009-.052.017-.1.026-.147.043h-.009c-.035.009-.061.026-.1.035a8.378,8.378,0,0,0-2.254-3.19l4.118-5.713a8.005,8.005,0,0,0,2.7,1l-.52,5.123a1.4,1.4,0,0,0,1.248,1.534,2.692,2.692,0,0,0,2.947-2.4l.139-1.344a4.267,4.267,0,0,0,1.994-.589l6.424,4.959a.963.963,0,0,1,.087.078l.009.009.035.035.017.017c.009.009.009.017.017.017l.017.017.026.026.052.078a.353.353,0,0,1,.052.1l.009.017c.009.017.009.026.017.043a.123.123,0,0,1,.017.052c.009.017.009.035.017.052l.017.052c.009.043.017.087.026.121v.017a.11.11,0,0,0,.009.052v.009h0v.043C83.427,202.6,83.427,202.656,83.418,202.7Zm.789-1.465-.009-.017-.017-.017a.378.378,0,0,0-.052-.061h0l-.009-.009a.12.12,0,0,1-.026-.035l-.017-.017c-.009-.017-.026-.026-.035-.043l-.009-.009-.043-.043c-.017-.017-.026-.035-.043-.043a2.382,2.382,0,0,0-.208-.182L76.6,195.244l-.373.277a3.049,3.049,0,0,1-2.141.6l-.607-.061-.251,2.505a1.506,1.506,0,0,1-.537,1,1.443,1.443,0,0,1-1.084.321.184.184,0,0,1-.165-.2l.433-4.256,3.1-1.526h0l.858-.425.052-.026a5.385,5.385,0,0,1,.659-.347A5.874,5.874,0,0,1,78,192.66a5.813,5.813,0,0,1,1.9,0,8.426,8.426,0,0,0,4.066-.3l2.887,6.424A8.363,8.363,0,0,0,84.207,201.234Z" transform="translate(-58.4 -188.3)" fill="#fff"/><path d="M402.569,283.334c.035,0,.061.009.1.009a.877.877,0,0,0,.564-.2.923.923,0,0,0,.329-.607.9.9,0,1,0-.988.8Zm-.2-.919a.29.29,0,0,1,.286-.26h.026a.3.3,0,0,1,.2.1.279.279,0,0,1,.061.217h0a.3.3,0,0,1-.1.2.28.28,0,0,1-.217.061A.3.3,0,0,1,402.37,282.415Z" transform="translate(-371.994 -273.46)" fill="#fff"/><path d="M91.338,280.736a.9.9,0,1,0-1.794-.182.859.859,0,0,0,.2.659.923.923,0,0,0,.607.329c.035,0,.061.009.1.009A.9.9,0,0,0,91.338,280.736Zm-1.118.1a.279.279,0,0,1-.061-.217.29.29,0,0,1,.286-.26h.026a.292.292,0,0,1-.061.581A.3.3,0,0,1,90.22,280.831Z" transform="translate(-86.839 -271.816)" fill="#fff"/></g><g transform="translate(712 2031)" fill="none" stroke="#fff" stroke-width="1"><circle cx="24" cy="24" r="24" stroke="none"/><circle cx="24" cy="24" r="23.5" fill="none"/></g></g></svg>