<svg xmlns="http://www.w3.org/2000/svg" width="48" height="48" viewBox="0 0 48 48"><g transform="translate(-712 -1943)"><g transform="translate(725 1951)"><path d="M27.294,21.072l1.226-5.22L23.3,17.079l-2.084-3.363,8.561-2.14V1h-18.6V11.576l8.561,2.14-2.084,3.363-5.22-1.226,1.226,5.22L9.1,23.9l4.558,2.824-1.226,5.22,5.22-1.226,2.824,4.558L23.3,30.713l5.22,1.226-1.226-5.22L31.852,23.9Zm-6.817-8.646L16.9,11.531v-9.1h7.155v9.1Zm7.87-1.968-2.862.715V2.431h2.862ZM12.606,2.431h2.862v8.743l-2.862-.715ZM26.6,30.018l-3.972-.934-2.15,3.469-2.149-3.469-3.972.934.934-3.972-3.47-2.15,3.469-2.149-.934-3.972,3.972.934,2.15-3.47,2.149,3.469,3.972-.934-.934,3.972,3.47,2.15-3.469,2.149Z" transform="translate(-9.101 -1)" fill="#fff"/><path d="M23.293,27a4.293,4.293,0,1,0,4.293,4.293A4.3,4.3,0,0,0,23.293,27Zm0,7.155a2.862,2.862,0,1,1,2.862-2.862A2.865,2.865,0,0,1,23.293,34.155Z" transform="translate(-11.917 -8.397)" fill="#fff"/></g><g transform="translate(712 1943)" fill="none" stroke="#fff" stroke-width="1"><circle cx="24" cy="24" r="24" stroke="none"/><circle cx="24" cy="24" r="23.5" fill="none"/></g></g></svg>