<svg xmlns="http://www.w3.org/2000/svg" width="80" height="80" viewBox="0 0 80 80"><g transform="translate(-72 -1432)"><rect width="80" height="80" rx="16" transform="translate(72 1432)" fill="none"/><g transform="translate(91.961 1452)"><path d="M36.031,0a8.645,8.645,0,0,0-5.718,2.3L23.3,9.311a8.107,8.107,0,0,0-2,3.147,2.642,2.642,0,0,0-.141.728,2.646,2.646,0,0,0-.728.141,8.106,8.106,0,0,0-3.147,2l-2,2a1,1,0,0,0,0,1.417l1.092,1.092L5.988,30.227,3.143,31.553a1,1,0,0,0-.431.388L.306,35.886a1,1,0,0,0-.227.43s0,0,0,0q-.009.033-.016.067a1,1,0,0,0,.493,1.1l1.992,1.988a1,1,0,0,0,1.076.509,1,1,0,0,0,.521-.243L8.1,37.326a1,1,0,0,0,.387-.431L9.812,34.05,20.2,23.659l1.1,1.1a1,1,0,0,0,1.417,0l2-2a8.107,8.107,0,0,0,2-3.147,2.642,2.642,0,0,0,.141-.728,2.646,2.646,0,0,0,.728-.141,8.107,8.107,0,0,0,3.147-2l7.014-7.014a8.645,8.645,0,0,0,2.3-5.718,1,1,0,0,0-.293-.708l-1.5-1.5-1.5-1.5A1,1,0,0,0,36.031,0Zm-.36,2.059,1.155,1.155L37.98,4.368a6.241,6.241,0,0,1-1.656,3.941l-7.014,7.014a6.041,6.041,0,0,1-2.364,1.511,3.089,3.089,0,0,1-.935.2,1,1,0,0,0-1,1,3.09,3.09,0,0,1-.2.936A6.041,6.041,0,0,1,23.3,21.334L22,22.63l-2.3-2.3-2.3-2.3,1.3-1.3a6.041,6.041,0,0,1,2.364-1.511,3.089,3.089,0,0,1,.935-.2,1,1,0,0,0,1-1,3.09,3.09,0,0,1,.2-.936,6.04,6.04,0,0,1,1.511-2.364L31.73,3.714A6.24,6.24,0,0,1,35.671,2.059ZM17.793,21.252l.5.5.493.493L8.27,32.755a1,1,0,0,0-.2.286L6.795,35.773,3.621,37.71,2.329,36.418l1.937-3.174L7,31.968a1,1,0,0,0,.282-.2Z" transform="translate(0 0)" fill="#2a357c"/></g></g></svg>