<svg xmlns="http://www.w3.org/2000/svg" width="80" height="80" viewBox="0 0 80 80"><g transform="translate(-216 -1400)"><rect width="80" height="80" rx="16" transform="translate(216 1400)" fill="none"/><g transform="translate(230.843 1417.438)"><path d="M12,26.389v6.167h6.167A14.389,14.389,0,0,0,32.556,18.167V12H26.389A14.389,14.389,0,0,0,12,26.389Z" transform="translate(11.158 10.788)" fill="#2a357c"/><path d="M10.824,15.429,23.158,6.8l12.334,8.633v5.3H39.6V18.307l2.94,2.056,2.343-3.371L23.158,1.78,1.43,16.991l2.343,3.371,2.939-2.056V43.344H21.1V39.233H10.824Z" transform="translate(0)" fill="#2a357c"/><rect width="8.222" height="4.111" transform="translate(19.046 14.566)" fill="#2a357c"/></g></g></svg>