<svg xmlns="http://www.w3.org/2000/svg" width="48" height="48" viewBox="0 0 48 48"><path d="M41.51.965H7.022A6.756,6.756,0,0,0,.266,7.721V42.209a6.756,6.756,0,0,0,6.756,6.756H41.51a6.756,6.756,0,0,0,6.756-6.756V7.721A6.756,6.756,0,0,0,41.51.965ZM16.268,39.317a1.186,1.186,0,0,1-.24.543,1.142,1.142,0,0,1-.543.24H9.935a1.135,1.135,0,0,1-.54-.24,1.143,1.143,0,0,1-.243-.543V19.835a1.166,1.166,0,0,1,.24-.54,1.143,1.143,0,0,1,.543-.243h5.55a1.166,1.166,0,0,1,.54.24,1.143,1.143,0,0,1,.243.543Zm-.9-23.583A3.612,3.612,0,0,1,12.71,16.82a3.681,3.681,0,0,1-3.741-3.741,3.539,3.539,0,0,1,1.086-2.592,3.648,3.648,0,0,1,5.31,0,3.548,3.548,0,0,1,1.083,2.592A3.61,3.61,0,0,1,15.365,15.734ZM39.851,39.317a.8.8,0,0,1-.783.783H33.4a.829.829,0,0,1-.783-.783V27.437a4.329,4.329,0,0,0-.543-2.355,2.84,2.84,0,0,0-2.172-.72,3.215,3.215,0,0,0-2.775,1.143,5.746,5.746,0,0,0-.783,3.258V39.317a.8.8,0,0,1-.786.783h-5.55a.823.823,0,0,1-.78-.783V19.835a1.135,1.135,0,0,1,.24-.54,1.148,1.148,0,0,1,.54-.243h5.37a1.043,1.043,0,0,1,.48.12c.084.042.165.18.243.42v.3l.06.12V20.5a7.571,7.571,0,0,1,5.49-1.929,8.812,8.812,0,0,1,6.03,1.869,7.381,7.381,0,0,1,2.172,5.73Z" transform="translate(-0.266 -0.965)" fill="#db5462"/></svg>