<svg xmlns="http://www.w3.org/2000/svg" width="48" height="48" viewBox="0 0 48 48"><g transform="translate(-712 -2119)"><g transform="translate(722 2126)"><path d="M17.008,18.985a.508.508,0,0,0,.086-.017A6.9,6.9,0,0,0,25.53,10.5a.547.547,0,0,0-.388-.387,6.9,6.9,0,0,0-4.675.42,7.264,7.264,0,0,0-3.182-8.875.547.547,0,0,0-.549,0,7.261,7.261,0,0,0-3.2,8.868,6.914,6.914,0,0,0-4.662-.413.547.547,0,0,0-.389.387,6.906,6.906,0,0,0,8.438,8.464.519.519,0,0,0,.085.017ZM24.546,11.1a5.8,5.8,0,0,1-6.186,6.975l4.059-4.066a.549.549,0,1,0-.777-.776L17.582,17.3a5.8,5.8,0,0,1,6.964-6.2ZM17.008,2.78a6.215,6.215,0,0,1,.539,10.035V6.525a.549.549,0,1,0-1.1,0v6.287A6.215,6.215,0,0,1,17.008,2.78ZM11.048,16.4A5.826,5.826,0,0,1,9.47,11.1a5.824,5.824,0,0,1,5.289,1.578h0a5.82,5.82,0,0,1,1.684,4.413l-3.852-3.858a.549.549,0,0,0-.777.776l4.033,4.039a5.812,5.812,0,0,1-4.8-1.648Z" transform="translate(-3.129 -1.587)" fill="#fff"/><path d="M9.5,33.3h7.1a.548.548,0,0,0,.549-.548V29.753a11.007,11.007,0,0,0-3.214-7.8L10.01,18a1.955,1.955,0,0,0-2.218-.393V10.287a2.037,2.037,0,1,0-4.074,0v8.42a7.038,7.038,0,0,0,.825,3.3l4.4,8.235v2.5A.548.548,0,0,0,9.5,33.3ZM5.513,21.49a5.926,5.926,0,0,1-.7-2.783v-8.42a.94.94,0,1,1,1.88,0v8.748a1.945,1.945,0,0,0,.554,1.735l3.835,3.788a.548.548,0,1,0,.77-.78L8.02,19.989a.857.857,0,1,1,1.211-1.214l3.919,3.949a9.917,9.917,0,0,1,2.9,7.028V32.2h-6V30.1a.556.556,0,0,0-.064-.259Z" transform="translate(-3.718 -0.721)" fill="#fff"/><path d="M16.952,33.3h7.1a.548.548,0,0,0,.549-.548V30.242L29,22.007a7.039,7.039,0,0,0,.825-3.3v-8.42a2.037,2.037,0,1,0-4.074,0V17.61a1.959,1.959,0,0,0-.744-.183A1.994,1.994,0,0,0,23.535,18l-3.918,3.949a11,11,0,0,0-3.214,7.8v2.994a.548.548,0,0,0,.549.548Zm.548-3.543a9.915,9.915,0,0,1,2.9-7.028l3.918-3.949a.858.858,0,0,1,1.212,1.214l-3.835,3.789a.548.548,0,1,0,.77.78L26.3,20.77a1.948,1.948,0,0,0,.553-1.736V10.287a.94.94,0,1,1,1.88,0v8.42a5.926,5.926,0,0,1-.7,2.783l-4.466,8.357a.556.556,0,0,0-.064.259V32.2h-6Z" transform="translate(-2.068 -0.721)" fill="#fff"/></g><g transform="translate(712 2119)" fill="none" stroke="#fff" stroke-width="1"><circle cx="24" cy="24" r="24" stroke="none"/><circle cx="24" cy="24" r="23.5" fill="none"/></g></g></svg>