<svg xmlns="http://www.w3.org/2000/svg" width="24" height="24" viewBox="0 0 24 24"><path d="M21.068,0A2.934,2.934,0,0,1,24,2.932V21.068A2.934,2.934,0,0,1,21.068,24H2.932A2.934,2.934,0,0,1,0,21.068V2.932A2.934,2.934,0,0,1,2.932,0H21.068ZM12,3.8c-2.228,0-2.507.009-3.382.049a6.02,6.02,0,0,0-1.991.381,4.194,4.194,0,0,0-2.4,2.4,6.023,6.023,0,0,0-.381,1.991C3.806,9.493,3.8,9.772,3.8,12s.009,2.507.049,3.382a6.023,6.023,0,0,0,.381,1.991,4.195,4.195,0,0,0,2.4,2.4,6.022,6.022,0,0,0,1.991.381c.875.04,1.154.049,3.382.049s2.507-.009,3.382-.049a6.022,6.022,0,0,0,1.991-.381,4.195,4.195,0,0,0,2.4-2.4,6.021,6.021,0,0,0,.381-1.991c.04-.875.049-1.154.049-3.382s-.009-2.507-.049-3.382a6.022,6.022,0,0,0-.381-1.991,4.194,4.194,0,0,0-2.4-2.4,6.02,6.02,0,0,0-1.991-.381C14.507,3.806,14.228,3.8,12,3.8Zm0,1.478c2.19,0,2.45.008,3.315.048a4.542,4.542,0,0,1,1.523.282,2.717,2.717,0,0,1,1.557,1.557,4.539,4.539,0,0,1,.282,1.523c.039.865.048,1.124.048,3.315s-.008,2.45-.048,3.315a4.539,4.539,0,0,1-.282,1.523,2.717,2.717,0,0,1-1.557,1.557,4.539,4.539,0,0,1-1.523.282c-.865.039-1.124.048-3.315.048s-2.45-.008-3.315-.048a4.539,4.539,0,0,1-1.523-.282,2.717,2.717,0,0,1-1.557-1.557,4.54,4.54,0,0,1-.282-1.523C5.283,14.45,5.275,14.19,5.275,12s.008-2.45.048-3.315a4.54,4.54,0,0,1,.282-1.523A2.717,2.717,0,0,1,7.162,5.605a4.542,4.542,0,0,1,1.523-.282C9.55,5.283,9.81,5.275,12,5.275Zm0,2.513A4.212,4.212,0,1,0,16.212,12,4.212,4.212,0,0,0,12,7.788Zm0,6.947A2.734,2.734,0,1,1,14.734,12,2.734,2.734,0,0,1,12,14.734Zm5.363-7.113a.984.984,0,1,1-.984-.984.984.984,0,0,1,.984.984Z" fill="#db5462" fill-rule="evenodd"/></svg>