<svg xmlns="http://www.w3.org/2000/svg" width="80" height="80" viewBox="0 0 80 80"><g transform="translate(-216 -1112)"><rect width="80" height="80" rx="16" transform="translate(216 1112)" fill="none"/><g transform="translate(236 1132)"><path d="M13.769,8.385H5.692A2.7,2.7,0,0,1,3,5.692V3H16.462V5.692A2.7,2.7,0,0,1,13.769,8.385Z" fill="rgba(0,0,0,0)" stroke="#2a357c" stroke-linecap="round" stroke-linejoin="round" stroke-miterlimit="10" stroke-width="2"/><path d="M19.385,13.346v8.077a1.272,1.272,0,0,1-1.346,1.346H15.346A1.272,1.272,0,0,1,14,21.423V13.346A1.272,1.272,0,0,1,15.346,12h2.692A1.272,1.272,0,0,1,19.385,13.346Z" transform="translate(3.808 3.115)" fill="rgba(0,0,0,0)" stroke="#2a357c" stroke-linecap="round" stroke-linejoin="round" stroke-miterlimit="10" stroke-width="2"/><path d="M32.462,30.385H19V27.692A2.7,2.7,0,0,1,21.692,25h8.077a2.7,2.7,0,0,1,2.692,2.692Z" transform="translate(5.538 7.615)" fill="rgba(0,0,0,0)" stroke="#2a357c" stroke-linecap="round" stroke-linejoin="round" stroke-miterlimit="10" stroke-width="2"/><path d="M17.115,15.077H14.692a1.637,1.637,0,0,1-1.615-1.615V7H5v8.077H5a8.1,8.1,0,0,0,8.077,8.077h4.038" transform="translate(0.692 1.385)" fill="rgba(0,0,0,0)" stroke="#2a357c" stroke-linecap="round" stroke-linejoin="round" stroke-miterlimit="10" stroke-width="2"/><path d="M18,21.077h2.423a1.637,1.637,0,0,1,1.615,1.615v6.462h8.077V21.077h0A8.1,8.1,0,0,0,22.038,13H18" transform="translate(5.192 3.462)" fill="rgba(0,0,0,0)" stroke="#2a357c" stroke-linecap="round" stroke-linejoin="round" stroke-miterlimit="10" stroke-width="2"/></g></g></svg>