<svg xmlns="http://www.w3.org/2000/svg" width="80" height="80" viewBox="0 0 80 80">
  <g id="icon-spanners" transform="translate(-169 -984)">
    <rect id="Rectangle_23" data-name="Rectangle 23" width="80" height="80" rx="16" transform="translate(169 984)" fill="none"/>
    <g id="Wrench_1_" transform="translate(73.643 992.687)">
      <g id="Group_3" data-name="Group 3" transform="translate(107.357 24.965) rotate(-45)">
        <g id="Group_1" data-name="Group 1" transform="translate(17.356 0)">
          <path id="Path_5" data-name="Path 5" d="M282.224,19.865h-.118a3.151,3.151,0,0,0-3.148,3.148V52.776a8.5,8.5,0,0,1-1.937,5.33,7.011,7.011,0,0,0,5.443,11.43h1.011l-2.547-5.21.526-1.732h2.481l2.14,4.993.647-.517a5.581,5.581,0,0,0,1.515-2.433q.044-.121.084-.242a8.43,8.43,0,0,0-1.563-7.934,5.819,5.819,0,0,1-1.222-2.5,7.629,7.629,0,0,1-.162-1.563V23.013A3.151,3.151,0,0,0,282.224,19.865Zm-2,9.7h1.346V49.647h1.262V29.56h1.282V52.4a8.906,8.906,0,0,0,.066,1.062h-3.984c.017-.227.028-.454.028-.682V29.56Zm3.89-1.262h-3.89v-.464h3.89Zm-2-7.171h.118a1.888,1.888,0,0,1,1.886,1.886v3.559h-3.89V23.013A1.888,1.888,0,0,1,282.106,21.127Zm3.679,36.139A7.158,7.158,0,0,1,287.12,64q-.034.1-.071.206a6.216,6.216,0,0,1-.553,1.161l-1.73-4.037h-4.249l-.942,3.1,1.829,3.742A5.75,5.75,0,0,1,278,58.9a9.929,9.929,0,0,0,2.012-4.182h4.413A7.138,7.138,0,0,0,285.785,57.267Z" transform="translate(-275.453 -19.865)" fill="#2a357c"/>
          <path id="Path_6" data-name="Path 6" d="M325.328,37.284a1.674,1.674,0,1,0-1.674-1.674A1.676,1.676,0,0,0,325.328,37.284Zm0-2.086a.412.412,0,1,1-.412.412A.413.413,0,0,1,325.328,35.2Z" transform="translate(-318.585 -32.456)" fill="#2a357c"/>
          <rect id="Rectangle_11" data-name="Rectangle 11" width="1.262" height="2.058" transform="translate(6.113 31.044)" fill="#2a357c"/>
        </g>
        <g id="Group_2" data-name="Group 2" transform="translate(0 0)">
          <path id="Path_7" data-name="Path 7" d="M175.339,446.227a1.674,1.674,0,1,0,1.674,1.674A1.676,1.676,0,0,0,175.339,446.227Zm0,2.086a.412.412,0,1,1,.412-.412A.413.413,0,0,1,175.339,448.313Z" transform="translate(-167.015 -401.385)" fill="#2a357c"/>
          <path id="Path_8" data-name="Path 8" d="M124.44,30.537a7.012,7.012,0,0,0-5.98-10.672h-1.011L120,25.075l-.526,1.732h-2.481l-2.14-4.993-.647.517c-.09.072-2.117,1.748-2.153,6.4h-1.615v2.956l.56.322a9.043,9.043,0,0,1,1.284.89c.1.08.192.162.283.244a9.072,9.072,0,0,1,2.991,6.726V66.388a3.152,3.152,0,0,0,3.148,3.148h.118a3.152,3.152,0,0,0,3.148-3.148V40.868h0V39.416A16.962,16.962,0,0,1,124.44,30.537Zm-10.011-6.5,1.377,3.212-1.826,1.48h-.669A9.009,9.009,0,0,1,114.429,24.036ZM113.406,32.2c-.105-.095-.214-.188-.322-.278a10.288,10.288,0,0,0-1.387-.97V29.99h2.73l2.371-1.921h3.609l.942-3.1-1.83-3.742a5.751,5.751,0,0,1,3.846,8.652,18.224,18.224,0,0,0-2.66,9.539v1.451h0V59.84H119.39V39.753h-1.262V59.84h-1.314V39.866A10.337,10.337,0,0,0,113.406,32.2Zm3.408,28.9h3.89v.464h-3.89Zm2,7.171H118.7a1.888,1.888,0,0,1-1.886-1.886V62.829h3.89v3.559A1.888,1.888,0,0,1,118.818,68.274Z" transform="translate(-110.434 -19.865)" fill="#2a357c"/>
          <path id="Path_9" data-name="Path 9" d="M164.377,111.13h-5.121v3.649h5.121Zm-3.859,1.262h.668v1.125h-.668Zm2.6,1.125h-.668v-1.125h.668Z" transform="translate(-154.121 -101.531)" fill="#2a357c"/>
          <rect id="Rectangle_12" data-name="Rectangle 12" width="1.262" height="2.059" transform="translate(7.693 16.568)" fill="#2a357c"/>
        </g>
      </g>
    </g>
  </g>
</svg>
