<svg xmlns="http://www.w3.org/2000/svg" width="48" height="48" viewBox="0 0 48 48"><g transform="translate(-712 -1871)"><g transform="translate(725 1879)"><path d="M28.862,16.235C28.862,9.588,23.768,4.2,17.486,4.2S6.11,9.588,6.11,16.235A14.47,14.47,0,0,0,9.561,24.4l.79,1.083a6.316,6.316,0,0,1,.5.99,6.629,6.629,0,0,1,.351,1.083v.371a3.883,3.883,0,0,0,.439,1.021,5.307,5.307,0,0,0,.5.65c.146,0,.234.309.38.433a3.848,3.848,0,0,0,2.573.99h4.767a4.071,4.071,0,0,0,3.8-3.31h0a6.123,6.123,0,0,1,.848-2.073l.79-1.083h0a14.4,14.4,0,0,0,3.568-8.323ZM15.176,29.168a2.262,2.262,0,0,1-1.462-.557,2.631,2.631,0,0,1-.819-1.454,6.122,6.122,0,0,0-.439-1.423,6.236,6.236,0,0,0-.819-1.33l-.76-1.114a13,13,0,0,1-3.012-7.054A9.912,9.912,0,0,1,17.486,6.056a9.912,9.912,0,0,1,9.621,10.179,12.98,12.98,0,0,1-3.129,7.054l-.76,1.145a5.535,5.535,0,0,0-.7,1.3,6.434,6.434,0,0,0-.263.8,4.911,4.911,0,0,0-.175.619,3.134,3.134,0,0,1-.819,1.454,2.262,2.262,0,0,1-1.462.557Z" transform="translate(-6.11 -4.2)" fill="#fff"/><path d="M9.346,14.662h5.106a.716.716,0,0,0,.716-.716.692.692,0,0,0-.716-.716H9.346a.692.692,0,0,0-.716.716A.716.716,0,0,0,9.346,14.662Z" transform="translate(-0.523 13.447)" fill="#fff"/><path d="M14.6,14.14h-5.3a.716.716,0,0,0-.716.716.692.692,0,0,0,.716.716h5.3a.692.692,0,0,0,.716-.716.716.716,0,0,0-.716-.716Z" transform="translate(-0.579 15.714)" fill="#fff"/><path d="M13.155,15H9.7a.716.716,0,1,0,0,1.432h3.46a.716.716,0,0,0,0-1.432Z" transform="translate(-0.034 16.906)" fill="#fff"/><path d="M14.927,10.086V8.416a.716.716,0,0,0-.716-.716.74.74,0,0,0-.716.716v1.67a1.551,1.551,0,0,1-1.67,1.432,1.575,1.575,0,0,1-1.694-1.432V8.416a.716.716,0,0,0-1.432,0v1.67a3.125,3.125,0,0,0,6.227,0Z" transform="translate(-0.422 2.985)" fill="#fff"/></g><g transform="translate(712 1871)" fill="none" stroke="#fff" stroke-width="1"><circle cx="24" cy="24" r="24" stroke="none"/><circle cx="24" cy="24" r="23.5" fill="none"/></g></g></svg>