<svg xmlns="http://www.w3.org/2000/svg" width="80" height="80" viewBox="0 0 80 80"><g transform="translate(-1591 -1668)"><rect width="80" height="80" rx="16" transform="translate(1591 1668)" fill="none"/><g transform="translate(1599.5 1678.002)"><path d="M59.438,11.9H52.984v-.267a.922.922,0,1,0-1.844,0V11.9H44.688a2.766,2.766,0,0,0-2.766,2.766V17.43a.922.922,0,0,0-.922.922V20.2a.922.922,0,0,0,.922.922v1.844a.922.922,0,0,0-.922.922v1.844a.922.922,0,0,0,.922.922V46.009a2.766,2.766,0,0,0,2.766,2.766h6.453v3.688a.922.922,0,0,0,1.844,0V48.774h6.453A2.766,2.766,0,0,0,62.2,46.009V14.665A2.766,2.766,0,0,0,59.438,11.9Zm-14.75,1.844h14.75a.922.922,0,0,1,.784.461H58.977a2.646,2.646,0,0,0-2.065,1.069,1.77,1.77,0,0,1-1.392.774H48.605a1.77,1.77,0,0,1-1.392-.774A2.646,2.646,0,0,0,45.148,14.2H43.9A.922.922,0,0,1,44.688,13.743ZM60.359,46.009a.922.922,0,0,1-.922.922H44.688a.922.922,0,0,1-.922-.922v-5.07H60.359ZM43.766,40.016V15.126h1.383a1.77,1.77,0,0,1,1.392.774,2.646,2.646,0,0,0,2.065,1.069H55.52A2.646,2.646,0,0,0,57.594,15.9a1.77,1.77,0,0,1,1.392-.774h1.374V40.016Z" transform="translate(-3.164 -0.837)" fill="#2a357c"/><circle cx="0.5" cy="0.5" r="0.5" transform="translate(48.539 13.998)" fill="#2a357c"/><path d="M16.336,16.422a.461.461,0,0,0,0-.922A7.845,7.845,0,0,0,8.5,23.336a.461.461,0,0,0,.922,0,6.914,6.914,0,0,1,6.914-6.914Z" transform="translate(-0.625 -1.211)" fill="#2a357c"/><path d="M16.5,7.961V9.8a.461.461,0,1,0,.922,0V7.961a.461.461,0,1,0-.922,0Z" transform="translate(-1.25 -0.586)" fill="#2a357c"/><path d="M9.881,12.163a.507.507,0,0,0,.23-.065.461.461,0,0,0,.166-.627l-.922-1.6a.461.461,0,1,0-.793.461l.922,1.6A.461.461,0,0,0,9.881,12.163Z" transform="translate(-0.623 -0.75)" fill="#2a357c"/><path d="M4.471,17.277a.4.4,0,0,0,.23.065.46.46,0,0,0,.23-.857l-1.6-.922a.461.461,0,1,0-.461.793Z" transform="translate(-0.164 -1.209)" fill="#2a357c"/><path d="M.5,23.961a.461.461,0,0,0,.461.461H2.8a.461.461,0,0,0,0-.922H.961A.461.461,0,0,0,.5,23.961Z" transform="translate(0 -1.836)" fill="#2a357c"/><path d="M3.1,32.344a.415.415,0,0,0,.23-.065l1.6-.922a.459.459,0,0,0-.461-.793l-1.6.922a.461.461,0,0,0,.23.857Z" transform="translate(-0.168 -2.383)" fill="#2a357c"/><path d="M24.487,9.867l-.922,1.6a.461.461,0,0,0,.166.627.507.507,0,0,0,.23.065.461.461,0,0,0,.4-.23l.922-1.6a.461.461,0,1,0-.793-.461Z" transform="translate(-1.797 -0.75)" fill="#2a357c"/><path d="M28.685,17.111a.461.461,0,0,0,.4.23.4.4,0,0,0,.23-.065l1.6-.922a.461.461,0,1,0-.461-.793l-1.6.922A.461.461,0,0,0,28.685,17.111Z" transform="translate(-2.197 -1.209)" fill="#2a357c"/><path d="M33.266,23.961A.461.461,0,0,0,32.8,23.5H30.961a.461.461,0,0,0,0,.922H32.8A.461.461,0,0,0,33.266,23.961Z" transform="translate(-2.344 -1.836)" fill="#2a357c"/><path d="M30.455,32.279a.415.415,0,0,0,.23.065.461.461,0,0,0,.23-.857l-1.6-.922a.452.452,0,0,0-.627.166.461.461,0,0,0,.166.627Z" transform="translate(-2.197 -2.383)" fill="#2a357c"/><path d="M14.14,48.8h.922v.267a.922.922,0,1,0,1.844,0V48.8h.922a2.766,2.766,0,0,0,2.766-2.766V44.943a2.766,2.766,0,0,0,1.844-2.6V36.812a17.728,17.728,0,0,1,.452-4.047,11.984,11.984,0,1,0-13.828,0,17.728,17.728,0,0,1,.47,4.047v5.531a2.766,2.766,0,0,0,1.844,2.6v1.088A2.766,2.766,0,0,0,14.14,48.8Zm6.453-6.951a23.287,23.287,0,0,1-9.219-3.19V36.047a23.333,23.333,0,0,0,9.219,3.033Zm-9.219-2.1a23.3,23.3,0,0,0,9.108,3.024.922.922,0,0,1-.811.5H12.3a.922.922,0,0,1-.922-.922Zm7.375,6.287a.922.922,0,0,1-.922.922H14.14a.922.922,0,0,1-.922-.922v-.922h5.531ZM5.843,22.984a10.141,10.141,0,1,1,15.672,8.509,8.9,8.9,0,0,1-1.162.645h-.092a10.38,10.38,0,0,1-8.481,0h-.092a8.9,8.9,0,0,1-1.162-.645A10.141,10.141,0,0,1,5.843,22.984ZM12.3,34.378h.055a11.883,11.883,0,0,0,7.283,0h.055c.36-.12.71-.249,1.051-.4H20.8a20.281,20.281,0,0,0-.2,2.83v1.346a23.314,23.314,0,0,1-9.311-3.19,6.884,6.884,0,0,0-.1-.977h.055C11.577,34.129,11.927,34.258,12.3,34.378Z" transform="translate(-0.273 -0.859)" fill="#2a357c"/><path d="M16.922,55.29a.922.922,0,0,0-.922.922V59.9a.922.922,0,1,0,1.844,0V56.212A.922.922,0,0,0,16.922,55.29Z" transform="translate(-1.211 -4.32)" fill="#2a357c"/><path d="M38.749,62H35.062a.922.922,0,0,0,0,1.844h3.688a.922.922,0,0,0,0-1.844Z" transform="translate(-2.628 -4.844)" fill="#2a357c"/><path d="M26.14,62.922a.922.922,0,0,0,.922.922h3.688a.922.922,0,0,0,0-1.844H27.062A.922.922,0,0,0,26.14,62.922Z" transform="translate(-2.003 -4.844)" fill="#2a357c"/><path d="M52.774,59a.922.922,0,0,0-.922.922v.922a.922.922,0,0,1-.857.922.922.922,0,1,0,.065,1.844h.065A2.766,2.766,0,0,0,53.7,60.844v-.922A.922.922,0,0,0,52.774,59Z" transform="translate(-3.875 -4.609)" fill="#2a357c"/><path d="M22.749,62H19.062a.922.922,0,0,0,0,1.844h3.688a.922.922,0,0,0,0-1.844Z" transform="translate(-1.378 -4.844)" fill="#2a357c"/><path d="M46.749,63.844a.922.922,0,0,0,0-1.844H43.062a.922.922,0,0,0,0,1.844Z" transform="translate(-3.253 -4.844)" fill="#2a357c"/><path d="M27.391.922A.922.922,0,0,0,26.469,0H22.782a.922.922,0,0,0,0,1.844h3.688a.922.922,0,0,0,.922-.922Z" transform="translate(-1.669 0)" fill="#2a357c"/><path d="M43.391.922A.922.922,0,0,0,42.469,0H38.782a.922.922,0,1,0,0,1.844h3.688a.922.922,0,0,0,.922-.922Z" transform="translate(-2.919 0)" fill="#2a357c"/><path d="M35.391.922A.922.922,0,0,0,34.469,0H30.782a.922.922,0,1,0,0,1.844h3.688a.922.922,0,0,0,.922-.922Z" transform="translate(-2.294 0)" fill="#2a357c"/><path d="M52,3.632V7.319a.922.922,0,0,0,1.844,0V3.632a.922.922,0,0,0-1.844,0Z" transform="translate(-4.023 -0.212)" fill="#2a357c"/><path d="M46.782,0a.922.922,0,1,0,0,1.844h3.688a.922.922,0,1,0,0-1.844Z" transform="translate(-3.544 0)" fill="#2a357c"/><path d="M17.844,3.687V2.765a.922.922,0,0,1,.857-.922A.924.924,0,0,0,18.572,0,2.766,2.766,0,0,0,16,2.765v.922a.922.922,0,0,0,1.844,0Z" transform="translate(-1.211 0)" fill="#2a357c"/><path d="M46.883,48.266A1.383,1.383,0,1,0,45.5,46.883,1.383,1.383,0,0,0,46.883,48.266Zm0-1.844a.461.461,0,1,1-.461.461A.461.461,0,0,1,46.883,46.422Z" transform="translate(-3.516 -3.555)" fill="#2a357c"/><path d="M51.883,48.266h6.453a1.383,1.383,0,1,0,0-2.766H51.883a1.383,1.383,0,1,0,0,2.766Zm0-1.844h6.453a.461.461,0,0,1,0,.922H51.883a.461.461,0,0,1,0-.922Z" transform="translate(-3.906 -3.555)" fill="#2a357c"/><path d="M57.75,31.5h-4.2A2.056,2.056,0,0,0,51.5,33.547v.516a2.056,2.056,0,0,0,2.047,2.047h2.544a1.1,1.1,0,0,1,.627.194l2.36,1.576a.526.526,0,0,0,.258.074.489.489,0,0,0,.221-.055.47.47,0,0,0,.24-.406V33.547A2.056,2.056,0,0,0,57.75,31.5Zm1.125,5.135-1.65-1.106a2.047,2.047,0,0,0-1.134-.341H53.547a1.125,1.125,0,0,1-1.125-1.125v-.516a1.125,1.125,0,0,1,1.125-1.125h4.2a1.125,1.125,0,0,1,1.125,1.125Z" transform="translate(-3.984 -2.461)" fill="#2a357c"/><path d="M53.8,25.063v-.516A2.056,2.056,0,0,0,51.75,22.5h-4.2A2.056,2.056,0,0,0,45.5,24.547v3.946a.47.47,0,0,0,.24.406.489.489,0,0,0,.221.055.525.525,0,0,0,.258-.074l2.36-1.576a1.1,1.1,0,0,1,.627-.194H51.75A2.056,2.056,0,0,0,53.8,25.063Zm-5.725,1.466-1.65,1.106V24.547a1.125,1.125,0,0,1,1.125-1.125h4.2a1.125,1.125,0,0,1,1.125,1.125v.516a1.125,1.125,0,0,1-1.125,1.125H49.206a2.047,2.047,0,0,0-1.134.341Z" transform="translate(-3.516 -1.758)" fill="#2a357c"/></g></g></svg>