<svg xmlns="http://www.w3.org/2000/svg" width="80" height="80" viewBox="0 0 80 80"><g transform="translate(-640 -1832)"><rect width="80" height="80" rx="40" transform="translate(640 1832)" fill="none"/><g transform="translate(629.607 1753.578)"><g transform="translate(19.393 103.422)"><path d="M420.005,231.611a1.8,1.8,0,1,0-1.8-1.8A1.806,1.806,0,0,0,420.005,231.611Zm0-2.188a.384.384,0,1,1-.384.384A.384.384,0,0,1,420.005,229.423Z" transform="translate(-371.006 -213.26)" fill="#2a357c"/><path d="M34.423,110.031a2.286,2.286,0,0,0,1.912,1.035h3.652v-.6h1.638v1.591h3.368v6.175h.756V122.5h-.756v12.475h-.927v1.42h6.9v-1.42h-.906V122.5H49.29v-3.178H61.516q.335,0,.667-.015l.5,5.212,1.8-.173.782,8.026-2.947,2.932v4.228H75.393V105.6h-.017q.016-.371.016-.746v-.71l-16.954,0-1.277-.721H47.87v1.042H41.625v1.591H39.987v-.6H36.335a2.279,2.279,0,0,0-1.6.66l-4.66,1.176a.84.84,0,0,0-.4.234H19.393v1.42H30.129Zm13.806,24.947v-1.606h-1.42v1.606h-.4V123.923h.4v8.1h1.42v-8.1h.415v11.055ZM47.87,122.5h-.7v-4.268h.7V122.5Zm16.478.432-.386.037-.364-3.794q.191-.027.38-.059l.258,2.647Zm8.227-.246v-8.838a13.969,13.969,0,0,0,1.4-2.373v24.236h-1.4V122.69Zm.807-13.613H66.653v1.42h6.221a12.549,12.549,0,0,1-1.324,2.384H65.229a5.635,5.635,0,0,1-5.582-4.917H73.659Q73.541,108.532,73.381,109.077Zm-2.227,13.113-5.268,1.881-.239-2.451-.269-2.81a13.254,13.254,0,0,0,5.776-3.317ZM66.3,133.351h3.185v-1.42H66.652l-.624-6.4,5.126-1.83v12.018h-7.23Zm-2.56,4.763v-.979H73.973v.979ZM49.29,104.842h7.5l1.277.722,15.891,0q-.022.5-.075.983h-15.7v.71A7.055,7.055,0,0,0,65.23,114.3h5.137a12.142,12.142,0,0,1-8.851,3.6H49.29V104.842Zm-2.876,1.042H47.87v10.93H46.413v-10.93Zm-3.368,0h1.948v4.755H43.045v-4.755Zm-2.994,1.591h1.574v1.574H40.051Zm-3.716-.6h2.232v2.768H36.335a.868.868,0,0,1-.867-.867v-1.034A.868.868,0,0,1,36.335,106.878Zm-2.287.877v.717l-1.421-.359Z" transform="translate(-19.393 -103.422)" fill="#2a357c"/><rect width="5.38" height="1.42" transform="translate(31.082 12.167)" fill="#2a357c"/><rect width="5.38" height="1.42" transform="translate(31.082 7.74)" fill="#2a357c"/><rect width="5.38" height="1.42" transform="translate(31.082 9.954)" fill="#2a357c"/><rect width="2.314" height="1.42" transform="translate(43.415 5.655)" fill="#2a357c"/></g></g></g></svg>