<svg xmlns="http://www.w3.org/2000/svg" width="48" height="48" viewBox="0 0 48 48"><path d="M42.136,0A5.867,5.867,0,0,1,48,5.864V42.136A5.867,5.867,0,0,1,42.136,48H5.864A5.867,5.867,0,0,1,0,42.136V5.864A5.867,5.867,0,0,1,5.864,0H42.136ZM40.17,16.465a4.226,4.226,0,0,0-2.984-2.984C34.554,12.776,24,12.776,24,12.776s-10.554,0-13.186.705A4.227,4.227,0,0,0,7.83,16.465a43.932,43.932,0,0,0-.705,8.124,43.927,43.927,0,0,0,.705,8.123A4.227,4.227,0,0,0,10.814,35.7C13.446,36.4,24,36.4,24,36.4s10.554,0,13.186-.705a4.226,4.226,0,0,0,2.984-2.984,43.927,43.927,0,0,0,.705-8.123A43.932,43.932,0,0,0,40.17,16.465ZM20.625,29.652V19.526l8.768,5.063Z" fill="#db5462" fill-rule="evenodd"></path></svg>