<svg xmlns="http://www.w3.org/2000/svg" width="48" height="48" viewBox="0 0 48 48"><path d="M35.809,0c.288,0,.864,0,1.3.048a17.708,17.708,0,0,1,3.072.24,9.671,9.671,0,0,1,2.592.864,8.493,8.493,0,0,1,2.4,1.728,8.379,8.379,0,0,1,1.68,2.352,9.672,9.672,0,0,1,.864,2.592A23.131,23.131,0,0,1,48,10.9V35.807c0,.288,0,.864-.048,1.3a17.707,17.707,0,0,1-.24,3.072,9.672,9.672,0,0,1-.864,2.592,8.493,8.493,0,0,1-1.728,2.4,8.379,8.379,0,0,1-2.352,1.68,9.672,9.672,0,0,1-2.592.864A23.131,23.131,0,0,1,37.105,48H12.193c-.288,0-.864,0-1.3-.048a17.707,17.707,0,0,1-3.072-.24,9.672,9.672,0,0,1-2.592-.864,8.493,8.493,0,0,1-2.4-1.728,8.379,8.379,0,0,1-1.68-2.352,9.671,9.671,0,0,1-.864-2.592A23.131,23.131,0,0,1,0,37.1V12.191c0-.288,0-.864.048-1.3a17.708,17.708,0,0,1,.24-3.072,9.671,9.671,0,0,1,.864-2.592,8.493,8.493,0,0,1,1.728-2.4,8.379,8.379,0,0,1,2.352-1.68A9.671,9.671,0,0,1,7.825.287,23.13,23.13,0,0,1,10.9,0H35.809Zm.815,11.49A17.112,17.112,0,0,0,9.695,32.128L7.267,40.991l9.07-2.378a17.1,17.1,0,0,0,8.177,2.082h.007a17.111,17.111,0,0,0,12.1-29.205Zm-12.1,26.316h-.006a14.2,14.2,0,0,1-7.238-1.982l-.519-.308-5.382,1.411,1.437-5.246-.338-.538a14.222,14.222,0,1,1,12.047,6.662Zm7.8-10.647c-.427-.214-2.529-1.248-2.921-1.391s-.677-.214-.962.214-1.1,1.391-1.354,1.676-.5.321-.926.107a11.673,11.673,0,0,1-3.438-2.121,12.88,12.88,0,0,1-2.378-2.961c-.249-.428-.027-.659.188-.872.192-.191.427-.5.641-.749a2.916,2.916,0,0,0,.427-.713.787.787,0,0,0-.036-.749c-.107-.214-.962-2.318-1.318-3.173-.347-.833-.7-.721-.962-.734s-.534-.015-.819-.015a1.571,1.571,0,0,0-1.14.535,4.793,4.793,0,0,0-1.5,3.566A8.313,8.313,0,0,0,17.573,24.2c.214.285,3.015,4.6,7.3,6.453a24.6,24.6,0,0,0,2.437.9,5.863,5.863,0,0,0,2.693.169,4.4,4.4,0,0,0,2.886-2.032,3.572,3.572,0,0,0,.249-2.032c-.107-.178-.392-.285-.819-.5Z" transform="translate(-0.001 0.001)" fill="#db5462"></path></svg>