<svg xmlns="http://www.w3.org/2000/svg" width="48" height="48" viewBox="0 0 48 48"><path d="M42.136,0A5.867,5.867,0,0,1,48,5.864V42.136A5.867,5.867,0,0,1,42.136,48H5.864A5.867,5.867,0,0,1,0,42.136V5.864A5.867,5.867,0,0,1,5.864,0H42.136ZM18.33,39.8c12.744,0,19.713-10.56,19.713-19.713,0-.3,0-.6-.014-.891a14.194,14.194,0,0,0,3.463-3.592,14.061,14.061,0,0,1-3.98,1.092,6.924,6.924,0,0,0,3.046-3.836,14.028,14.028,0,0,1-4.4,1.681,6.932,6.932,0,0,0-11.983,4.741,6.35,6.35,0,0,0,.187,1.58,19.654,19.654,0,0,1-14.282-7.241,6.925,6.925,0,0,0,2.155,9.239A6.806,6.806,0,0,1,9.106,22v.086a6.936,6.936,0,0,0,5.56,6.8,6.906,6.906,0,0,1-1.825.244A6.611,6.611,0,0,1,11.534,29,6.918,6.918,0,0,0,18,33.81a13.926,13.926,0,0,1-8.606,2.96,12.587,12.587,0,0,1-1.652-.1A19.3,19.3,0,0,0,18.33,39.8Z" fill="#db5462" fill-rule="evenodd"></path></svg>