<svg xmlns="http://www.w3.org/2000/svg" width="194.845" height="52.004" viewBox="0 0 194.845 52.004"><g transform="translate(1262.594 -2358.5)"><g transform="translate(-1262.594 2358.5)"><path d="M-702.5,606.072h-60.425l30.156,52,4.21-6.714-22.3-38.918h44.608Z" transform="translate(762.929 -606.072)" fill="#db5462"></path><path d="M-671.722,635.833h-36.837l8.388,15.135h12.631l-2.162,5.007-1.252-2.5h-7.624l8.193,14.68,13.428-23.328h-20.028l-1.593-2.617h23.328Z" transform="translate(726.23 -626.16)" fill="#db5462"></path></g><path d="M.42-70.885l10.1,24.229,10.1-24.229H16.869L10.521-55.017,4.174-70.885Zm38.835,0H26.7v22.762H39.255V-51.4H30.178v-7.166h8.8v-3.276h-8.8v-5.767h9.078Zm7.712,0v22.762h3.481V-57.44h.614l6.518,9.316h4.2l-7.1-9.726A6.243,6.243,0,0,0,59.731-64.2a6.351,6.351,0,0,0-2.7-5.358c-1.467-.99-3.242-1.331-6.006-1.331Zm3.481,3.208h1.194c1.706,0,4.744.307,4.744,3.515,0,3.617-3.89,3.72-4.846,3.72H50.449Zm30.577.2a7.753,7.753,0,0,0-1.74-2.286A6.712,6.712,0,0,0,74.712-71.3c-4.266,0-6.655,2.935-6.655,6.006,0,3.413,2.764,4.982,4.641,5.767l2.184.921c1.5.614,3.276,1.57,3.276,3.89a3.657,3.657,0,0,1-3.754,3.822,3.591,3.591,0,0,1-2.969-1.365,4.916,4.916,0,0,1-.956-2.9l-3.447.751a7.369,7.369,0,0,0,1.911,4.436A6.659,6.659,0,0,0,74.3-47.68a7.015,7.015,0,0,0,7.337-7.3c0-2.594-1.16-4.982-5.358-6.689L74-62.593c-2.218-.887-2.457-2.082-2.457-2.764,0-1.467,1.092-2.73,3.208-2.73a3.63,3.63,0,0,1,2.457.819,3.616,3.616,0,0,1,1.024,1.433Zm8.19-3.413v14.64a8.424,8.424,0,0,0,2.116,5.9,8.3,8.3,0,0,0,6.313,2.662,8.3,8.3,0,0,0,6.313-2.662,8.424,8.424,0,0,0,2.116-5.9v-14.64h-3.481v13.719a7.955,7.955,0,0,1-.717,3.924,4.982,4.982,0,0,1-4.232,2.355,4.982,4.982,0,0,1-4.232-2.355,7.955,7.955,0,0,1-.717-3.924V-70.885Zm38.153,3.413a7.753,7.753,0,0,0-1.74-2.286,6.712,6.712,0,0,0-4.573-1.536c-4.266,0-6.655,2.935-6.655,6.006,0,3.413,2.764,4.982,4.641,5.767l2.184.921c1.5.614,3.276,1.57,3.276,3.89a3.657,3.657,0,0,1-3.754,3.822,3.591,3.591,0,0,1-2.969-1.365,4.916,4.916,0,0,1-.956-2.9l-3.447.751a7.369,7.369,0,0,0,1.911,4.436,6.659,6.659,0,0,0,5.358,2.286,7.015,7.015,0,0,0,7.337-7.3c0-2.594-1.16-4.982-5.358-6.689l-2.286-.921c-2.218-.887-2.457-2.082-2.457-2.764,0-1.467,1.092-2.73,3.208-2.73a3.63,3.63,0,0,1,2.457.819,3.616,3.616,0,0,1,1.024,1.433Z" transform="translate(-1195.733 2443.513)" fill="#2a357c"></path></g></svg>